<?xml version="1.0" encoding="UTF-8" standalone="no"?>
<svg
   version="1.1"
   id="svg1"
   width="308"
   height="269"
   viewBox="0 0 308 269"
   sodipodi:docname="car_damage_bottom_view_old.svg"
   inkscape:version="1.4.2 (f4327f4, 2025-05-13)"
   xmlns:inkscape="http://www.inkscape.org/namespaces/inkscape"
   xmlns:sodipodi="http://sodipodi.sourceforge.net/DTD/sodipodi-0.dtd"
   xmlns:xlink="http://www.w3.org/1999/xlink"
   xmlns="http://www.w3.org/2000/svg"
   xmlns:svg="http://www.w3.org/2000/svg">
  <sodipodi:namedview
     id="namedview1"
     pagecolor="#ffffff"
     bordercolor="#000000"
     borderopacity="0.25"
     inkscape:showpageshadow="2"
     inkscape:pageopacity="0.0"
     inkscape:pagecheckerboard="0"
     inkscape:deskcolor="#d1d1d1"
     inkscape:zoom="2.1213203"
     inkscape:cx="110.78006"
     inkscape:cy="162.87027"
     inkscape:window-width="1920"
     inkscape:window-height="1017"
     inkscape:window-x="-8"
     inkscape:window-y="-8"
     inkscape:window-maximized="1"
     inkscape:current-layer="svg1"
     showguides="false" />
  <defs
     id="defs1">
    <radialGradient
       id="radialGradient4342"
       xlink:href="#linearGradient3793"
       gradientUnits="userSpaceOnUse"
       cy="536"
       cx="328"
       r="80"
       gradientTransform="matrix(0.21799567,0,0,0.21740978,217.73536,90.655273)" />
    <linearGradient
       id="linearGradient3793">
      <stop
         id="stop3795"
         stop-color="#252525"
         offset="0" />
      <stop
         id="stop3797"
         stop-color="#232323"
         offset="1" />
    </linearGradient>
    <linearGradient
       id="linearGradient4360"
       y2="956"
       xlink:href="#linearGradient6122-7"
       gradientUnits="userSpaceOnUse"
       x2="792.08002"
       gradientTransform="matrix(2.3068,0.36536,-0.36536,2.3068,-624.22,-1520.9)"
       y1="956"
       x1="695.91998" />
    <linearGradient
       id="linearGradient6122-7">
      <stop
         id="stop6124-1"
         stop-color="#e4e4cd"
         offset="0" />
      <stop
         id="stop6126-6"
         stop-color="#858585"
         offset="1" />
    </linearGradient>
    <linearGradient
       id="linearGradient4378"
       y2="956"
       xlink:href="#linearGradient3793"
       gradientUnits="userSpaceOnUse"
       x2="792.08002"
       gradientTransform="matrix(2.3068,0.36536,-0.36536,2.3068,-624.22,-1520.9)"
       y1="956"
       x1="695.91998" />
    <linearGradient
       id="linearGradient2"
       x1="530.6222"
       y1="809.9411"
       x2="533.76"
       y2="809.9411"
       gradientUnits="userSpaceOnUse">
      <stop
         id="stop1"
         stop-color="#252525"
         offset="0" />
      <stop
         id="stop2"
         stop-color="#232323"
         offset="1" />
    </linearGradient>
    <linearGradient
       id="linearGradient4"
       x1="530.6222"
       y1="809.9411"
       x2="533.76"
       y2="809.9411"
       gradientUnits="userSpaceOnUse">
      <stop
         id="stop3"
         stop-color="#e4e4cd"
         offset="0" />
      <stop
         id="stop4"
         stop-color="#858585"
         offset="1" />
    </linearGradient>
    <linearGradient
       id="linearGradient4501"
       y2="814.01001"
       xlink:href="#linearGradient4418"
       gradientUnits="userSpaceOnUse"
       x2="539.37"
       y1="814.01001"
       x1="529.98999" />
    <linearGradient
       id="linearGradient4418">
      <stop
         id="stop4420"
         offset="0" />
      <stop
         id="stop4422"
         stop-opacity="0"
         offset="1" />
    </linearGradient>
    <linearGradient
       id="linearGradient4342"
       y2="814.66998"
       xlink:href="#linearGradient6122-7"
       gradientUnits="userSpaceOnUse"
       x2="593.26001"
       y1="814.66998"
       x1="492.67999"
       gradientTransform="matrix(0.28879732,0,0,0.2783209,132.51762,-19.717018)" />
    <radialGradient
       inkscape:collect="always"
       xlink:href="#linearGradient3793"
       id="radialGradient27"
       gradientUnits="userSpaceOnUse"
       cx="328"
       cy="536"
       r="80" />
    <linearGradient
       inkscape:collect="always"
       xlink:href="#linearGradient6122-7"
       id="linearGradient27"
       gradientUnits="userSpaceOnUse"
       gradientTransform="matrix(2.3068,0.36536,-0.36536,2.3068,-624.22,-1520.9)"
       x1="695.91998"
       y1="956"
       x2="792.08002"
       y2="956" />
    <linearGradient
       inkscape:collect="always"
       xlink:href="#linearGradient3793"
       id="linearGradient28"
       gradientUnits="userSpaceOnUse"
       gradientTransform="matrix(2.3068,0.36536,-0.36536,2.3068,-624.22,-1520.9)"
       x1="695.91998"
       y1="956"
       x2="792.08002"
       y2="956" />
    <linearGradient
       inkscape:collect="always"
       xlink:href="#linearGradient6122-7"
       id="linearGradient29"
       gradientUnits="userSpaceOnUse"
       x1="525.71002"
       y1="814.71002"
       x2="543.90997"
       y2="814.71002" />
    <linearGradient
       inkscape:collect="always"
       xlink:href="#linearGradient6122-7"
       id="linearGradient30"
       gradientUnits="userSpaceOnUse"
       x1="525.71002"
       y1="814.71002"
       x2="543.90997"
       y2="814.71002" />
    <linearGradient
       inkscape:collect="always"
       xlink:href="#linearGradient2"
       id="linearGradient31"
       gradientUnits="userSpaceOnUse"
       x1="530.6222"
       y1="809.9411"
       x2="533.76"
       y2="809.9411" />
    <linearGradient
       inkscape:collect="always"
       xlink:href="#linearGradient4418"
       id="linearGradient32"
       gradientUnits="userSpaceOnUse"
       x1="529.98999"
       y1="814.01001"
       x2="539.37"
       y2="814.01001" />
    <linearGradient
       inkscape:collect="always"
       xlink:href="#linearGradient4"
       id="linearGradient33"
       gradientUnits="userSpaceOnUse"
       x1="530.6222"
       y1="809.9411"
       x2="533.76"
       y2="809.9411" />
    <linearGradient
       inkscape:collect="always"
       xlink:href="#linearGradient4418"
       id="linearGradient34"
       gradientUnits="userSpaceOnUse"
       x1="529.98999"
       y1="814.01001"
       x2="539.37"
       y2="814.01001" />
    <linearGradient
       inkscape:collect="always"
       xlink:href="#linearGradient4"
       id="linearGradient35"
       gradientUnits="userSpaceOnUse"
       x1="530.6222"
       y1="809.9411"
       x2="533.76"
       y2="809.9411" />
    <linearGradient
       inkscape:collect="always"
       xlink:href="#linearGradient4418"
       id="linearGradient36"
       gradientUnits="userSpaceOnUse"
       x1="529.98999"
       y1="814.01001"
       x2="539.37"
       y2="814.01001" />
    <linearGradient
       inkscape:collect="always"
       xlink:href="#linearGradient6122-7"
       id="linearGradient37"
       gradientUnits="userSpaceOnUse"
       x1="492.67999"
       y1="814.66998"
       x2="593.26001"
       y2="814.66998" />
    <radialGradient
       inkscape:collect="always"
       xlink:href="#linearGradient3793"
       id="radialGradient51"
       gradientUnits="userSpaceOnUse"
       cx="328"
       cy="536"
       r="80" />
    <linearGradient
       inkscape:collect="always"
       xlink:href="#linearGradient6122-7"
       id="linearGradient51"
       gradientUnits="userSpaceOnUse"
       gradientTransform="matrix(2.3068,0.36536,-0.36536,2.3068,-624.22,-1520.9)"
       x1="695.91998"
       y1="956"
       x2="792.08002"
       y2="956" />
    <linearGradient
       inkscape:collect="always"
       xlink:href="#linearGradient3793"
       id="linearGradient52"
       gradientUnits="userSpaceOnUse"
       gradientTransform="matrix(2.3068,0.36536,-0.36536,2.3068,-624.22,-1520.9)"
       x1="695.91998"
       y1="956"
       x2="792.08002"
       y2="956" />
    <linearGradient
       inkscape:collect="always"
       xlink:href="#linearGradient6122-7"
       id="linearGradient53"
       gradientUnits="userSpaceOnUse"
       x1="525.71002"
       y1="814.71002"
       x2="543.90997"
       y2="814.71002" />
    <linearGradient
       inkscape:collect="always"
       xlink:href="#linearGradient6122-7"
       id="linearGradient54"
       gradientUnits="userSpaceOnUse"
       x1="525.71002"
       y1="814.71002"
       x2="543.90997"
       y2="814.71002" />
    <linearGradient
       inkscape:collect="always"
       xlink:href="#linearGradient2"
       id="linearGradient55"
       gradientUnits="userSpaceOnUse"
       x1="530.6222"
       y1="809.9411"
       x2="533.76"
       y2="809.9411" />
    <linearGradient
       inkscape:collect="always"
       xlink:href="#linearGradient4418"
       id="linearGradient56"
       gradientUnits="userSpaceOnUse"
       x1="529.98999"
       y1="814.01001"
       x2="539.37"
       y2="814.01001" />
    <linearGradient
       inkscape:collect="always"
       xlink:href="#linearGradient4"
       id="linearGradient57"
       gradientUnits="userSpaceOnUse"
       x1="530.6222"
       y1="809.9411"
       x2="533.76"
       y2="809.9411" />
    <linearGradient
       inkscape:collect="always"
       xlink:href="#linearGradient4418"
       id="linearGradient58"
       gradientUnits="userSpaceOnUse"
       x1="529.98999"
       y1="814.01001"
       x2="539.37"
       y2="814.01001" />
    <linearGradient
       inkscape:collect="always"
       xlink:href="#linearGradient4"
       id="linearGradient59"
       gradientUnits="userSpaceOnUse"
       x1="530.6222"
       y1="809.9411"
       x2="533.76"
       y2="809.9411" />
    <linearGradient
       inkscape:collect="always"
       xlink:href="#linearGradient4418"
       id="linearGradient60"
       gradientUnits="userSpaceOnUse"
       x1="529.98999"
       y1="814.01001"
       x2="539.37"
       y2="814.01001" />
    <linearGradient
       inkscape:collect="always"
       xlink:href="#linearGradient6122-7"
       id="linearGradient61"
       gradientUnits="userSpaceOnUse"
       x1="492.67999"
       y1="814.66998"
       x2="593.26001"
       y2="814.66998" />
    <radialGradient
       inkscape:collect="always"
       xlink:href="#linearGradient3793"
       id="radialGradient75"
       gradientUnits="userSpaceOnUse"
       cx="328"
       cy="536"
       r="80" />
    <linearGradient
       inkscape:collect="always"
       xlink:href="#linearGradient6122-7"
       id="linearGradient75"
       gradientUnits="userSpaceOnUse"
       gradientTransform="matrix(2.3068,0.36536,-0.36536,2.3068,-624.22,-1520.9)"
       x1="695.91998"
       y1="956"
       x2="792.08002"
       y2="956" />
    <linearGradient
       inkscape:collect="always"
       xlink:href="#linearGradient3793"
       id="linearGradient76"
       gradientUnits="userSpaceOnUse"
       gradientTransform="matrix(2.3068,0.36536,-0.36536,2.3068,-624.22,-1520.9)"
       x1="695.91998"
       y1="956"
       x2="792.08002"
       y2="956" />
    <linearGradient
       inkscape:collect="always"
       xlink:href="#linearGradient6122-7"
       id="linearGradient77"
       gradientUnits="userSpaceOnUse"
       x1="525.71002"
       y1="814.71002"
       x2="543.90997"
       y2="814.71002" />
    <linearGradient
       inkscape:collect="always"
       xlink:href="#linearGradient6122-7"
       id="linearGradient78"
       gradientUnits="userSpaceOnUse"
       x1="525.71002"
       y1="814.71002"
       x2="543.90997"
       y2="814.71002" />
    <linearGradient
       inkscape:collect="always"
       xlink:href="#linearGradient2"
       id="linearGradient79"
       gradientUnits="userSpaceOnUse"
       x1="530.6222"
       y1="809.9411"
       x2="533.76"
       y2="809.9411" />
    <linearGradient
       inkscape:collect="always"
       xlink:href="#linearGradient4418"
       id="linearGradient80"
       gradientUnits="userSpaceOnUse"
       x1="529.98999"
       y1="814.01001"
       x2="539.37"
       y2="814.01001" />
    <linearGradient
       inkscape:collect="always"
       xlink:href="#linearGradient4"
       id="linearGradient81"
       gradientUnits="userSpaceOnUse"
       x1="530.6222"
       y1="809.9411"
       x2="533.76"
       y2="809.9411" />
    <linearGradient
       inkscape:collect="always"
       xlink:href="#linearGradient4418"
       id="linearGradient82"
       gradientUnits="userSpaceOnUse"
       x1="529.98999"
       y1="814.01001"
       x2="539.37"
       y2="814.01001" />
    <linearGradient
       inkscape:collect="always"
       xlink:href="#linearGradient4"
       id="linearGradient83"
       gradientUnits="userSpaceOnUse"
       x1="530.6222"
       y1="809.9411"
       x2="533.76"
       y2="809.9411" />
    <linearGradient
       inkscape:collect="always"
       xlink:href="#linearGradient4418"
       id="linearGradient84"
       gradientUnits="userSpaceOnUse"
       x1="529.98999"
       y1="814.01001"
       x2="539.37"
       y2="814.01001" />
    <linearGradient
       inkscape:collect="always"
       xlink:href="#linearGradient6122-7"
       id="linearGradient85"
       gradientUnits="userSpaceOnUse"
       x1="492.67999"
       y1="814.66998"
       x2="593.26001"
       y2="814.66998" />
    <linearGradient
       id="linearGradient8"
       x1="530.62219"
       y1="809.9411"
       x2="533.76001"
       y2="809.9411"
       gradientUnits="userSpaceOnUse">
      <stop
         id="stop7"
         stop-color="#252525"
         offset="0" />
      <stop
         id="stop8"
         stop-color="#232323"
         offset="1" />
    </linearGradient>
    <radialGradient
       inkscape:collect="always"
       xlink:href="#linearGradient3793"
       id="radialGradient106"
       gradientUnits="userSpaceOnUse"
       cx="328"
       cy="536"
       r="80" />
    <linearGradient
       inkscape:collect="always"
       xlink:href="#linearGradient6122-7"
       id="linearGradient106"
       gradientUnits="userSpaceOnUse"
       gradientTransform="matrix(2.3068,0.36536,-0.36536,2.3068,-624.22,-1520.9)"
       x1="695.91998"
       y1="956"
       x2="792.08002"
       y2="956" />
    <linearGradient
       inkscape:collect="always"
       xlink:href="#linearGradient3793"
       id="linearGradient107"
       gradientUnits="userSpaceOnUse"
       gradientTransform="matrix(2.3068,0.36536,-0.36536,2.3068,-624.22,-1520.9)"
       x1="695.91998"
       y1="956"
       x2="792.08002"
       y2="956" />
    <linearGradient
       inkscape:collect="always"
       xlink:href="#linearGradient6122-7"
       id="linearGradient108"
       gradientUnits="userSpaceOnUse"
       x1="525.71002"
       y1="814.71002"
       x2="543.90997"
       y2="814.71002" />
    <linearGradient
       inkscape:collect="always"
       xlink:href="#linearGradient6122-7"
       id="linearGradient109"
       gradientUnits="userSpaceOnUse"
       x1="525.71002"
       y1="814.71002"
       x2="543.90997"
       y2="814.71002" />
    <linearGradient
       inkscape:collect="always"
       xlink:href="#linearGradient2"
       id="linearGradient110"
       gradientUnits="userSpaceOnUse"
       x1="530.6222"
       y1="809.9411"
       x2="533.76"
       y2="809.9411" />
    <linearGradient
       inkscape:collect="always"
       xlink:href="#linearGradient4418"
       id="linearGradient111"
       gradientUnits="userSpaceOnUse"
       x1="529.98999"
       y1="814.01001"
       x2="539.37"
       y2="814.01001" />
    <linearGradient
       inkscape:collect="always"
       xlink:href="#linearGradient4"
       id="linearGradient112"
       gradientUnits="userSpaceOnUse"
       x1="530.6222"
       y1="809.9411"
       x2="533.76"
       y2="809.9411" />
    <linearGradient
       inkscape:collect="always"
       xlink:href="#linearGradient4418"
       id="linearGradient113"
       gradientUnits="userSpaceOnUse"
       x1="529.98999"
       y1="814.01001"
       x2="539.37"
       y2="814.01001" />
    <linearGradient
       inkscape:collect="always"
       xlink:href="#linearGradient4"
       id="linearGradient114"
       gradientUnits="userSpaceOnUse"
       x1="530.6222"
       y1="809.9411"
       x2="533.76"
       y2="809.9411" />
    <linearGradient
       inkscape:collect="always"
       xlink:href="#linearGradient4418"
       id="linearGradient115"
       gradientUnits="userSpaceOnUse"
       x1="529.98999"
       y1="814.01001"
       x2="539.37"
       y2="814.01001" />
    <linearGradient
       inkscape:collect="always"
       xlink:href="#linearGradient6122-7"
       id="linearGradient116"
       gradientUnits="userSpaceOnUse"
       x1="492.67999"
       y1="814.66998"
       x2="593.26001"
       y2="814.66998" />
  </defs>
  <path
     style="fill:none;fill-opacity:1;stroke:#686868;stroke-width:0.8;stroke-dasharray:none;stroke-opacity:1;opacity:0.5"
     d="m 30.181079,84.446348 c 5.833333,0.111111 17.05533,-0.02697 23.493164,0.52523 6.437834,0.552197 8.090987,1.32322 9.744174,2.094258 0.235702,-4.326594 0.471399,-8.653101 0.478139,-12.872038 0.0067,-4.218937 -0.215477,-8.329966 -0.437701,-12.163335 -0.222225,-3.833369 -0.444443,-7.388853 -0.833337,-10.666661 -0.388895,-3.277808 -0.944439,-6.277748 -1.5,-9.111108 -0.555561,-2.83336 -1.111106,-5.499973 -1.666667,-7.833327 -0.555561,-2.333353 -1.111105,-4.333313 -1.722223,-6.166663 -0.611118,-1.83335 -1.277771,-3.499983 -2.166671,-5.444449 -0.8889,-1.944467 -1.999989,-4.166645 -2.999998,-5.88888 -1.000009,-1.722234 -1.88888,-2.944432 -2.944448,-4.11111 C 48.569943,11.641588 47.347746,10.530499 45.736614,10.0305 44.125483,9.5305008 42.125523,9.6416098 40.569957,9.3082688 39.01439,8.9749278 37.903301,8.1971648 33.681005,7.9749468 29.45871,7.7527278 22.125523,8.0860548 18.181073,8.5305048 c -3.94445,0.444449 -4.499994,0.999994 -4.722215,5.1111812 -0.222221,4.111188 -0.111115,11.777548 -10e-7,15.610958 0.111113,3.83341 0.22222,3.83341 2.055589,4.055637 1.833369,0.222226 5.388783,0.666653 7.388823,0.88888 2.000041,0.222227 2.444476,0.222227 3.388935,0.66668 0.944459,0.444453 3.095982,0.979771 4.262657,1.979783 1.166676,1.000011 2.762654,1.757546 3.651552,2.813111 0.888898,1.055566 2.367024,2.762653 3.089252,3.929333 0.722227,1.16668 1.15992,2.853539 1.548812,4.020216 0.388891,1.166677 0.846811,2.520211 0.957922,3.409108 0.111111,0.888896 0.111111,1.784509 0.166668,2.840078 0.05556,1.055569 -0.186888,2.978132 -0.131332,4.200365 0.05556,1.222233 -0.533696,1.979768 -0.755928,3.09089 -0.222226,1.111123 -1.020215,2.575766 -1.575777,3.742445 -0.555562,1.166678 -1.457917,1.79962 -2.297998,2.619482 -0.72223,1.055565 -1.735696,1.826585 -2.680151,2.659926 -0.944456,0.833341 -2.055545,1.728955 -3.61112,2.284513 -1.555575,0.555559 -3.084131,0.771034 -5.08413,1.104368 0.111111,3.666667 -0.01348,8.51177 0.264301,10.289584 0.277783,1.777814 0.250812,0.488194 6.084147,0.599305 z"
     id="front_left_fender" />
  <path
     style="fill:none;stroke:#686868;stroke-width:0.8;stroke-dasharray:none;stroke-opacity:1;opacity:0.5"
     d="m 63.548112,86.086054 c 0.04882,-0.666666 0.146447,-2 0.250819,-3.222233 0.104372,-1.222233 0.215481,-2.333322 0.264296,-3.356344 0.04882,-1.023022 0.03534,-1.957915 0.02186,-2.892828 2.235702,2.60158 4.471405,5.20316 6.644833,7.726196 2.173427,2.523036 4.284496,4.967432 5.951175,7.023004 1.666679,2.055572 2.888877,3.722205 3.999998,5.500002 1.111122,1.7778 2.111101,3.666649 3.018121,5.434169 0.907019,1.76752 1.721025,3.4136 2.560167,5.17949 0.839143,1.76589 1.703368,3.65147 2.449764,5.5371 0.746396,1.88564 1.374922,3.77122 2.082036,5.89257 0.707115,2.12134 1.492772,4.47831 2.082033,6.83536 0.58926,2.35705 0.982089,4.71402 1.296361,6.91393 0.314273,2.19991 0.54997,4.24262 0.74639,6.48181 0.19642,2.2392 0.353552,4.67474 0.43212,7.14964 0.07857,2.4749 0.07857,4.98901 0.03928,7.7389 -0.03928,2.74989 -0.11785,5.73539 -0.29463,8.50491 -0.176779,2.76953 -0.451759,5.32292 -0.785675,7.89603 -0.333915,2.57311 -0.726744,5.16578 -1.178512,7.56211 -0.451768,2.39633 -0.962448,4.59618 -1.55171,6.91394 -0.589262,2.31776 -1.257071,4.7533 -1.767763,6.77643 -0.510692,2.02313 -0.864238,3.63373 -1.25708,4.94974 -0.392841,1.31602 -0.824952,2.33737 -1.257073,3.35875 -1.532065,-1.6892 -3.064129,-3.3784 -4.596194,-5.0676 0.667823,-2.23917 1.335646,-4.47834 2.042761,-6.7961 0.707115,-2.31777 1.453491,-4.71403 2.082034,-7.07107 0.628544,-2.35705 1.139222,-4.67474 1.610631,-7.34606 0.471409,-2.67133 0.90352,-5.69611 1.296361,-9.17276 0.392841,-3.47665 0.746387,-7.40494 0.962449,-10.50838 0.216061,-3.10343 0.294627,-5.38184 0.314268,-6.61928 0.01964,-1.23744 -0.01964,-1.43385 -0.05893,-1.63027 -7.833731,0.25197 -15.667461,0.50395 -23.501191,0.75592 -0.101578,-2.05903 -0.203155,-4.11805 -0.304733,-6.17708 7.817458,-0.2357 15.634917,-0.4714 23.452375,-0.7071 -0.31427,-2.1606 -0.62854,-4.32121 -1.001739,-6.38362 -0.3732,-2.06242 -0.805311,-4.02656 -1.276721,-5.9122 -0.471411,-1.88564 -0.982088,-3.69265 -1.512423,-5.34258 -0.530336,-1.64993 -1.080297,-3.14268 -1.610633,-4.57655 -0.530335,-1.43387 -1.041012,-2.80877 -1.630276,-4.16407 -0.589263,-1.35531 -1.257073,-2.69093 -2.317748,-4.43907 -1.060674,-1.74815 -2.514142,-3.90871 -4.006937,-5.95148 -1.492795,-2.04277 -3.024832,-3.967639 -4.340846,-5.578279 -1.316014,-1.610647 -2.415936,-2.906984 -3.574818,-4.164075 -1.158882,-1.257091 -2.376652,-2.474861 -3.280183,-3.35875 -0.903532,-0.883889 -1.492775,-1.43385 -2.082031,-1.983822 -0.1537,-0.347244 -0.3074,-0.694489 -0.384249,-0.868111 -0.07685,-0.173622 -0.07685,-0.173622 -0.02804,-0.840289 z"
     id="roof_edge_left" />
  <path
     style="fill:none;stroke:#686868;stroke-width:0.8;stroke-dasharray:none;stroke-opacity:1;opacity:0.5"
     d="m 24.125523,84.419388 c 6.666667,0.222222 13.333334,0.444444 18.277811,0.611112 4.944476,0.166668 8.166634,0.277777 10.777765,0.444446 2.611131,0.166668 4.611091,0.388886 6.143645,0.712114 1.532555,0.323227 2.597621,0.747443 3.662708,1.171668 0.379357,5.797998 0.758714,11.596003 1.226176,17.495052 0.467462,5.89906 1.023006,11.89894 1.457633,17.44472 0.434627,5.54579 0.748305,10.63705 0.932932,14.05211 0.184627,3.41505 0.24018,5.1535 0.295734,6.892 -2.397025,-0.12064 -4.794001,-0.24128 -11.867656,-0.43404 -7.073655,-0.19276 -18.823418,-0.45762 -30.573418,-0.72249 z"
     id="front_left_door" />
  <path
     style="opacity:0.5;fill:none;stroke:#686868;stroke-width:0.80228;stroke-dasharray:none;stroke-opacity:1"
     d="m 24.46003,142.42055 c 11.999428,0.27938 23.998856,0.55875 30.379313,0.70663 6.380459,0.14786 7.141895,0.16422 8.061905,0.20033 0.920011,0.0361 1.998458,0.092 2.692901,0.1363 0.694444,0.0444 1.004734,0.077 1.315041,0.10982 0.303566,4.37804 0.607128,8.75599 1.031918,12.95011 0.42479,4.19412 0.970778,8.20409 1.49377,12.50006 0.522992,4.29596 1.022959,8.87764 1.495162,13.06834 0.472204,4.19068 0.916619,7.99014 1.361047,11.17506 0.444428,3.18492 0.888842,5.75513 1.333265,8.3254 -1.277718,0.94987 -2.555436,1.89976 -3.694283,2.15118 -1.138849,0.25143 -2.138778,-0.19558 -9.666335,-5.36415 -7.527556,-5.16857 -21.58216,-15.05832 -35.637046,-24.94826 z"
     id="rear_left_door" />
  <path
     style="fill:none;stroke:#686868;stroke-width:0.8;stroke-dasharray:none;stroke-opacity:1;opacity:0.5"
     d="m 24.480267,173.35438 c 0,4.67476 0,9.34952 0,14.02428 1.06066,0.35355 2.121319,0.70711 3.162347,1.2178 1.041028,0.51069 2.062384,1.1785 3.005202,1.88562 0.942818,0.70711 1.807044,1.45349 2.592725,2.31774 0.78568,0.86425 1.492771,1.84632 2.160602,2.907 0.667831,1.06067 1.296356,2.19987 1.80705,3.31947 0.510694,1.1196 0.903523,2.21952 1.257079,3.41768 0.353556,1.19817 0.66782,2.49451 0.766028,3.88909 0.09821,1.39459 -0.01964,2.88734 -0.235705,4.24264 -0.216064,1.3553 -0.530327,2.57307 -0.903526,3.71231 -0.3732,1.13924 -0.805312,2.19988 -1.355291,3.26055 -0.549978,1.06067 -1.217788,2.12131 -2.00347,3.02484 -0.785682,0.90353 -1.689192,1.64991 -2.749865,2.41595 -1.060672,0.76604 -2.278444,1.5517 -3.476608,2.19988 -1.198164,0.64819 -2.376652,1.15887 -3.496248,1.61064 -1.119595,0.45176 -2.180235,0.84459 -3.221264,1.06065 -1.04103,0.21606 -2.062386,0.25535 -2.396294,1.2571 -0.333908,1.00175 0.01964,2.9659 0.31427,4.51762 0.29463,1.55172 0.530327,2.69092 0.824958,3.9873 0.294631,1.29637 0.648178,2.74984 1.060663,4.41942 0.412484,1.66958 0.883879,3.55516 1.37493,5.49972 0.491051,1.94456 1.001729,3.94799 1.374926,5.55864 0.373198,1.61064 0.608895,2.82841 0.8446,3.53552 0.235705,0.70711 0.471401,0.90352 0.982099,0.96245 0.510699,0.0589 1.296354,-0.0196 3.201644,-0.15714 1.905291,-0.13749 4.930076,-0.33391 7.935309,-0.53033 3.005234,-0.19642 5.990736,-0.39283 8.760263,-0.6089 2.769528,-0.21606 5.322918,-0.45176 7.679962,-0.66782 2.357044,-0.21606 4.517605,-0.41247 6.894295,-0.58925 2.376691,-0.17678 4.969364,-0.33391 6.619287,-0.62855 1.649923,-0.29463 2.357015,-0.72674 2.887349,-1.49278 0.530335,-0.76605 0.883881,-1.86597 1.139226,-3.31948 0.255345,-1.45352 0.412477,-3.26053 0.569613,-5.10689 0.157137,-1.84635 0.314268,-3.73193 0.549973,-5.38186 0.235706,-1.64993 0.54997,-3.06412 0.942812,-4.28192 0.392842,-1.21781 0.864235,-2.23916 1.492782,-3.81053 0.628548,-1.57137 1.414207,-3.69265 2.121319,-5.51936 0.707113,-1.8267 1.335642,-3.35874 2.062399,-5.14617 0.726758,-1.78743 1.551698,-3.83014 2.396307,-6.01041 0.844608,-2.18027 1.708831,-4.49796 2.47487,-6.30502 0.76604,-1.80707 1.433846,-3.1034 2.023108,-4.24264 0.589261,-1.13924 1.099941,-2.12132 1.610629,-3.10341 -1.807049,-2.04275 -3.614103,-4.08551 -5.421152,-6.12826 -1.37493,1.29636 -2.749862,2.59273 -3.869456,3.61411 -1.119594,1.02139 -1.98382,1.76777 -3.103418,2.57309 -1.119597,0.80533 -2.4945,1.66955 -3.476599,2.21952 -0.9821,0.54998 -1.57134,0.78568 -1.96418,0.90353 -0.39284,0.11785 -0.589251,0.11785 -1.139233,-0.0982 -0.549982,-0.21606 -1.453486,-0.64817 -8.858608,-5.75516 -7.405122,-5.10698 -21.311275,-14.88842 -35.217709,-24.67006 z"
     id="rear_left_fender" />
  <path
     style="fill:none;stroke:#686868;stroke-width:2.04374655;stroke-dasharray:none;stroke-opacity:1;opacity:0.5"
     d="m 58.933266,129.00151 c -0.322624,1.72886 -0.179234,5.0956 0.286789,6.77896 0.466022,1.68336 1.254647,1.68336 1.577271,-0.0455 0.322625,-1.7289 0.179239,-5.18655 -0.286786,-6.86991 -0.466024,-1.68337 -1.25465,-1.59238 -1.577274,0.13649 z"
     id="path10" />
  <path
     style="fill:none;stroke:#686868;stroke-width:0.8;stroke-dasharray:none;stroke-opacity:1;opacity:0.5"
     d="m 278.56264,83.974943 c -5.83333,0.111111 -17.05533,0.444438 -23.49316,0.996635 -6.43784,0.552197 -8.09099,1.32322 -9.74418,2.094258 -0.2357,-4.326594 -0.4714,-8.653101 -0.47814,-12.872038 -0.007,-4.218937 0.21548,-8.329966 0.4377,-12.163335 0.22223,-3.833369 0.44445,-7.388853 0.83334,-10.666661 0.3889,-3.277808 0.94444,-6.277748 1.5,-9.111108 0.55556,-2.83336 1.11111,-5.499973 1.66667,-7.833327 0.55556,-2.333353 1.1111,-4.333313 1.72222,-6.166663 0.61112,-1.83335 1.27777,-3.499983 2.16667,-5.444449 0.8889,-1.944467 1.99999,-4.166645 3,-5.88888 1.00001,-1.722234 1.88888,-2.944432 2.94445,-4.11111 1.05557,-1.166677 2.27776,-2.277766 3.8889,-2.777765 1.61113,-0.4999992 3.61109,-0.3888902 5.16665,-0.7222312 1.55557,-0.333341 2.66666,-1.111104 6.88896,-1.333322 4.22229,-0.222219 11.55548,0.111108 15.49993,0.555558 3.94445,0.444449 4.49999,0.999994 4.72221,5.1111812 0.22222,4.111188 0.11112,11.777548 0,15.610958 -0.11111,3.83341 -0.22222,3.83341 -2.05559,4.055637 -1.83337,0.222226 -4.47211,-0.16668 -6.47215,0.05555 -2.00004,0.222227 -3.69448,0.888893 -4.63894,1.333346 -0.94446,0.444453 -3.13887,1.749991 -4.30555,2.750003 -1.16667,1.000011 -1.97221,1.777766 -2.86111,2.833331 -0.8889,1.055566 -1.6111,1.63888 -2.33333,2.80556 -0.72223,1.16668 -1.6111,2.749986 -2,3.916663 -0.38889,1.166677 -0.77777,2.083324 -0.88888,2.972221 -0.11111,0.888896 -0.27778,2.249991 -0.33334,3.30556 -0.0556,1.055569 0.0833,2.638877 0.0278,3.86111 -0.0556,1.222233 0.44444,1.916654 0.66667,3.027776 0.22223,1.111123 1.16667,2.555545 1.72223,3.722224 0.55556,1.166678 1.47222,1.97221 2.19444,3.027774 0.72223,1.055565 1.5,1.944436 2.44445,2.777777 0.94446,0.833341 1.72222,2.027771 3.27779,2.583329 1.55557,0.555559 2.7508,1.69117 4.7508,2.024503 -0.11112,3.666667 -0.18342,9.892122 -0.18342,9.892122 0,0 0.0993,-0.333295 -5.73407,-0.222184 z"
     id="front_right_fender" />
  <path
     style="fill:none;stroke:#686868;stroke-width:0.8;stroke-dasharray:none;stroke-opacity:1;opacity:0.5"
     d="m 245.19561,86.086054 c -0.0488,-0.666666 -0.14645,-2 -0.25082,-3.222233 -0.10437,-1.222233 -0.21548,-2.333322 -0.2643,-3.356344 -0.0488,-1.023022 -0.0353,-1.957915 -0.0219,-2.892828 -2.2357,2.60158 -4.4714,5.20316 -6.64483,7.726196 -2.17343,2.523036 -4.2845,4.967432 -5.95118,7.023004 -1.66667,2.055572 -2.88887,3.722205 -3.99999,5.500002 -1.11113,1.7778 -2.1111,3.666649 -3.01812,5.434169 -0.90702,1.76752 -1.72103,3.4136 -2.56017,5.17949 -0.83914,1.76589 -1.70337,3.65147 -2.44977,5.5371 -0.74639,1.88564 -1.37492,3.77122 -2.08203,5.89257 -0.70712,2.12134 -1.49277,4.47831 -2.08203,6.83536 -0.58926,2.35705 -0.98209,4.71402 -1.29637,6.91393 -0.31427,2.19991 -0.54997,4.24262 -0.74639,6.48181 -0.19642,2.2392 -0.35355,4.67474 -0.43212,7.14964 -0.0786,2.4749 -0.0786,4.98901 -0.0393,7.7389 0.0393,2.74989 0.11785,5.73539 0.29463,8.50491 0.17678,2.76953 0.45176,5.32292 0.78568,7.89603 0.33391,2.57311 0.72674,5.16578 1.17851,7.56211 0.45177,2.39633 0.96245,4.59618 1.55171,6.91394 0.58926,2.31776 1.25707,4.7533 1.76776,6.77643 0.5107,2.02313 0.86424,3.63373 1.25708,4.94974 0.39285,1.31602 0.82496,2.33737 1.25708,3.35875 1.53206,-1.6892 3.06413,-3.3784 4.59619,-5.0676 -0.66782,-2.23917 -1.33564,-4.47834 -2.04276,-6.7961 -0.70711,-2.31777 -1.45349,-4.71403 -2.08203,-7.07107 -0.62855,-2.35705 -1.13923,-4.67474 -1.61063,-7.34606 -0.47141,-2.67133 -0.90352,-5.69611 -1.29637,-9.17276 -0.39284,-3.47665 -0.74638,-7.40494 -0.96244,-10.50838 -0.21607,-3.10343 -0.29463,-5.38184 -0.31427,-6.61928 -0.0196,-1.23744 0.0196,-1.43385 0.0589,-1.63027 7.83373,0.25197 15.66746,0.50395 23.50119,0.75592 0.10158,-2.05903 0.20315,-4.11805 0.30473,-6.17708 -7.81746,-0.2357 -15.63492,-0.4714 -23.45237,-0.7071 0.31427,-2.1606 0.62854,-4.32121 1.00174,-6.38362 0.3732,-2.06242 0.80531,-4.02656 1.27672,-5.9122 0.47141,-1.88564 0.98208,-3.69265 1.51242,-5.34258 0.53034,-1.64993 1.0803,-3.14268 1.61063,-4.57655 0.53034,-1.43387 1.04101,-2.80877 1.63028,-4.16407 0.58926,-1.35531 1.25707,-2.69093 2.31775,-4.43907 1.06067,-1.74815 2.51414,-3.90871 4.00693,-5.95148 1.4928,-2.04277 3.02484,-3.967639 4.34085,-5.578279 1.31601,-1.610647 2.41594,-2.906984 3.57482,-4.164075 1.15888,-1.257091 2.37665,-2.474861 3.28018,-3.35875 0.90353,-0.883889 1.49278,-1.43385 2.08203,-1.983822 0.1537,-0.347244 0.3074,-0.694489 0.38425,-0.868111 0.0769,-0.173622 0.0769,-0.173622 0.0281,-0.840289 z"
     id="roof_edge_right" />
  <path
     style="fill:none;stroke:#686868;stroke-width:0.8;stroke-dasharray:none;stroke-opacity:1;opacity:0.5"
     d="m 284.6182,84.419388 c -6.66667,0.222222 -13.33334,0.444444 -18.27781,0.611112 -4.94448,0.166668 -8.16664,0.277777 -10.77777,0.444446 -2.61113,0.166668 -4.61109,0.388886 -6.14364,0.712114 -1.53256,0.323227 -2.59763,0.747443 -3.66271,1.171668 -0.37936,5.797998 -0.75872,11.596003 -1.22618,17.495052 -0.46746,5.89906 -1.023,11.89894 -1.45763,17.44472 -0.43463,5.54579 -0.74831,10.63705 -0.93293,14.05211 -0.18463,3.41505 -0.24018,5.1535 -0.29574,6.892 2.39703,-0.12064 4.794,-0.24128 11.86766,-0.43404 7.07365,-0.19276 18.82342,-0.45762 30.57342,-0.72249 z"
     id="front_right_door" />
  <path
     style="opacity:0.5;fill:none;stroke:#686868;stroke-width:0.80128;stroke-dasharray:none;stroke-opacity:1"
     d="m 284.2842,142.42004 c -11.99968,0.27868 -23.99935,0.55734 -30.37995,0.70485 -6.38058,0.14749 -7.14204,0.1638 -8.06207,0.19983 -0.92002,0.036 -1.9985,0.0918 -2.69295,0.13596 -0.69448,0.0443 -1.00476,0.0769 -1.31508,0.10954 -0.30357,4.36703 -0.60714,8.73397 -1.03193,12.91755 -0.4248,4.18357 -0.97079,8.18345 -1.49381,12.46862 -0.523,4.28516 -1.02298,8.85532 -1.49518,13.03548 -0.47222,4.18015 -0.91665,7.97004 -1.36109,11.14696 -0.44443,3.1769 -0.88885,5.74066 -1.33328,8.30446 1.27775,0.9475 2.55547,1.89499 3.69436,2.14578 1.13886,0.2508 2.13882,-0.19509 9.66654,-5.35067 7.52772,-5.15557 21.5826,-15.02045 35.63778,-24.88552 z"
     id="rear_right_door" />
  <path
     style="fill:none;stroke:#686868;stroke-width:0.8;stroke-dasharray:none;stroke-opacity:1;opacity:0.5"
     d="m 284.26345,173.35438 c 0,4.67476 0,9.34952 0,14.02428 -1.06066,0.35355 -2.12132,0.70711 -3.16234,1.2178 -1.04103,0.51069 -2.06239,1.1785 -3.00521,1.88562 -0.94281,0.70711 -1.80704,1.45349 -2.59272,2.31774 -0.78568,0.86425 -1.49277,1.84632 -2.1606,2.907 -0.66783,1.06067 -1.29636,2.19987 -1.80705,3.31947 -0.5107,1.1196 -0.90353,2.21952 -1.25708,3.41768 -0.35356,1.19817 -0.66782,2.49451 -0.76603,3.88909 -0.0982,1.39459 0.0196,2.88734 0.2357,4.24264 0.21607,1.3553 0.53033,2.57307 0.90353,3.71231 0.3732,1.13924 0.80531,2.19988 1.35529,3.26055 0.54998,1.06067 1.21779,2.12131 2.00347,3.02484 0.78568,0.90353 1.68919,1.64991 2.74987,2.41595 1.06067,0.76604 2.27844,1.5517 3.47661,2.19988 1.19816,0.64819 2.37665,1.15887 3.49624,1.61064 1.1196,0.45176 2.18024,0.84459 3.22127,1.06065 1.04103,0.21606 2.06238,0.25535 2.39629,1.2571 0.33391,1.00175 -0.0196,2.9659 -0.31427,4.51762 -0.29463,1.55172 -0.53033,2.69092 -0.82496,3.9873 -0.29463,1.29637 -0.64818,2.74984 -1.06066,4.41942 -0.41248,1.66958 -0.88388,3.55516 -1.37493,5.49972 -0.49105,1.94456 -1.00173,3.94799 -1.37493,5.55864 -0.37319,1.61064 -0.60889,2.82841 -0.8446,3.53552 -0.2357,0.70711 -0.4714,0.90352 -0.98209,0.96245 -0.5107,0.0589 -1.29636,-0.0196 -3.20165,-0.15714 -1.90529,-0.13749 -4.93008,-0.33391 -7.93531,-0.53033 -3.00523,-0.19642 -5.99073,-0.39283 -8.76026,-0.6089 -2.76953,-0.21606 -5.32292,-0.45176 -7.67996,-0.66782 -2.35705,-0.21606 -4.51761,-0.41247 -6.8943,-0.58925 -2.37669,-0.17678 -4.96936,-0.33391 -6.61929,-0.62855 -1.64992,-0.29463 -2.35701,-0.72674 -2.88734,-1.49278 -0.53034,-0.76605 -0.88389,-1.86597 -1.13923,-3.31948 -0.25535,-1.45352 -0.41248,-3.26053 -0.56961,-5.10689 -0.15714,-1.84635 -0.31427,-3.73193 -0.54998,-5.38186 -0.2357,-1.64993 -0.54997,-3.06412 -0.94281,-4.28192 -0.39284,-1.21781 -0.86423,-2.23916 -1.49278,-3.81053 -0.62855,-1.57137 -1.41421,-3.69265 -2.12132,-5.51936 -0.70711,-1.8267 -1.33564,-3.35874 -2.0624,-5.14617 -0.72676,-1.78743 -1.5517,-3.83014 -2.39631,-6.01041 -0.8446,-2.18027 -1.70883,-4.49796 -2.47487,-6.30502 -0.76603,-1.80707 -1.43384,-3.1034 -2.0231,-4.24264 -0.58926,-1.13924 -1.09994,-2.12132 -1.61063,-3.10341 1.80705,-2.04275 3.6141,-4.08551 5.42115,-6.12826 1.37493,1.29636 2.74986,2.59273 3.86946,3.61411 1.11959,1.02139 1.98382,1.76777 3.10341,2.57309 1.1196,0.80533 2.4945,1.66955 3.4766,2.21952 0.9821,0.54998 1.57134,0.78568 1.96418,0.90353 0.39284,0.11785 0.58925,0.11785 1.13924,-0.0982 0.54998,-0.21606 1.45348,-0.64817 8.8586,-5.75516 7.40513,-5.107 21.31128,-14.88844 35.21771,-24.67008 z"
     id="rear_right_fender" />
  <path
     style="fill:none;stroke:#686868;stroke-width:2.04374655;stroke-dasharray:none;stroke-opacity:1;opacity:0.5"
     d="m 62.966186,185.10208 c -0.322623,1.72886 -0.179238,5.0956 0.286789,6.77895 0.466022,1.68337 1.254647,1.68337 1.577271,-0.0456 0.322625,-1.72889 0.179238,-5.18654 -0.286786,-6.86991 -0.466024,-1.68337 -1.25465,-1.59236 -1.577274,0.13643 z"
     id="path10-7" />
  <path
     style="fill:none;stroke:#686868;stroke-width:2.04374655;stroke-dasharray:none;stroke-opacity:1;opacity:0.5"
     d="m 247.96618,130.10208 c -0.32262,1.72886 -0.17923,5.0956 0.28679,6.77896 0.46603,1.68336 1.25465,1.68336 1.57727,-0.0455 0.32263,-1.7289 0.17924,-5.18655 -0.28678,-6.86991 -0.46603,-1.68337 -1.25465,-1.59238 -1.57728,0.13649 z"
     id="path10-79" />
  <path
     style="fill:none;stroke:#686868;stroke-width:2.04374655;stroke-dasharray:none;stroke-opacity:1;opacity:0.5"
     d="m 243.96618,187.10208 c -0.32262,1.72886 -0.17923,5.0956 0.28679,6.77896 0.46603,1.68336 1.25465,1.68336 1.57727,-0.0455 0.32263,-1.7289 0.17924,-5.18655 -0.28678,-6.86991 -0.46603,-1.68337 -1.25465,-1.59238 -1.57728,0.13649 z"
     id="path10-3" />
  <path
     style="fill:none;stroke:#686868;stroke-width:0.8;stroke-dasharray:none;stroke-opacity:1;opacity:0.5"
     d="m 13.79219,74.752721 c -0.333333,0.888889 -0.666667,2.249183 -0.777777,20.693989 -0.111109,18.4448 0,53.97268 0.111111,89.97268 2,0.44444 3.292895,-0.0539 5.01513,0.22385 1.722236,0.27778 4.735686,0.6246 6.180131,0.73571 L 23.79219,73.752721 Z"
     id="left_step" />
  <path
     style="fill:none;stroke:#686868;stroke-width:0.8;stroke-dasharray:none;stroke-opacity:1;opacity:0.5"
     d="m 294.87076,76.166935 c 0.33333,0.888889 0.43096,0.363546 0.54207,18.808361 0.11112,18.444814 1e-5,54.444094 -0.1111,90.444094 -2,0.44444 -8.66662,0.88888 -10.38888,1.16666 -1.72227,0.27778 0.83332,-0.009 -0.61117,0.10254 l 0.33338,-112.228763 z"
     id="right_step" />
  <g
     id="layer_anchors"
     transform="translate(0.79219017,-4.2472792)"
     style="stroke-width:0.99700304;stroke-dasharray:none;opacity:0.5">
    <ellipse
       style="opacity:0;fill:#1c1c1c;fill-opacity:1;stroke:none;stroke-width:0.99700304;stroke-linecap:round;stroke-linejoin:round;stroke-dasharray:none;stroke-opacity:1"
       id="rear_left_door_anchor"
       cx="48.790367"
       cy="170.41273"
       rx="2.1210001"
       ry="2.1213202" />
    <ellipse
       style="opacity:0;fill:#1c1c1c;fill-opacity:1;stroke:none;stroke-width:0.99700304;stroke-linecap:round;stroke-linejoin:round;stroke-dasharray:none;stroke-opacity:1"
       id="front_left_door_anchor"
       cx="42.790367"
       cy="116.41273"
       rx="2.1210001"
       ry="2.1213202" />
    <ellipse
       style="opacity:0;fill:#1c1c1c;fill-opacity:1;stroke:none;stroke-width:0.99700304;stroke-linecap:round;stroke-linejoin:round;stroke-dasharray:none;stroke-opacity:1"
       id="front_left_fender_anchor"
       cx="48.790367"
       cy="52.412727"
       rx="2.1210001"
       ry="2.1213202" />
    <ellipse
       style="opacity:0;fill:#1c1c1c;fill-opacity:1;stroke:none;stroke-width:0.99700304;stroke-linecap:round;stroke-linejoin:round;stroke-dasharray:none;stroke-opacity:1"
       id="rear_left_fender_anchor"
       cx="50.790367"
       cy="229.41272"
       rx="2.1210001"
       ry="2.1213202" />
    <ellipse
       style="opacity:0;fill:#1c1c1c;fill-opacity:1;stroke:none;stroke-width:0.99700304;stroke-linecap:round;stroke-linejoin:round;stroke-dasharray:none;stroke-opacity:1"
       id="rear_right_door_anchor"
       cx="258.79037"
       cy="170.41273"
       rx="2.1210001"
       ry="2.1213202" />
    <ellipse
       style="opacity:0;fill:#1c1c1c;fill-opacity:1;stroke:none;stroke-width:0.99700304;stroke-linecap:round;stroke-linejoin:round;stroke-dasharray:none;stroke-opacity:1"
       id="front_right_door_anchor"
       cx="260.79037"
       cy="116.41273"
       rx="2.1210001"
       ry="2.1213202" />
    <ellipse
       style="opacity:0;fill:#1c1c1c;fill-opacity:1;stroke:none;stroke-width:0.99700304;stroke-linecap:round;stroke-linejoin:round;stroke-dasharray:none;stroke-opacity:1"
       id="front_right_fender_anchor"
       cx="258.79037"
       cy="52.412727"
       rx="2.1210001"
       ry="2.1213202" />
    <ellipse
       style="opacity:0;fill:#1c1c1c;fill-opacity:1;stroke:none;stroke-width:0.99700304;stroke-linecap:round;stroke-linejoin:round;stroke-dasharray:none;stroke-opacity:1"
       id="rear_right_fender_anchor"
       cx="256.79037"
       cy="229.41272"
       rx="2.1210001"
       ry="2.1213202" />
    <ellipse
       style="opacity:0;fill:#1c1c1c;fill-opacity:1;stroke:none;stroke-width:0.99700304;stroke-linecap:round;stroke-linejoin:round;stroke-dasharray:none;stroke-opacity:1"
       id="trunk_anchor"
       cx="154.79037"
       cy="249.41272"
       rx="2.1210001"
       ry="2.1213202" />
    <ellipse
       style="opacity:0;fill:#1c1c1c;fill-opacity:1;stroke:none;stroke-width:0.99700304;stroke-linecap:round;stroke-linejoin:round;stroke-dasharray:none;stroke-opacity:1"
       id="roof_anchor"
       cx="154.79037"
       cy="161.41272"
       rx="2.1210001"
       ry="2.1213202" />
    <ellipse
       style="opacity:0;fill:#1c1c1c;fill-opacity:1;stroke:none;stroke-width:0.99700304;stroke-linecap:round;stroke-linejoin:round;stroke-dasharray:none;stroke-opacity:1"
       id="hood_anchor"
       cx="154.79037"
       cy="43.41272"
       rx="2.1210001"
       ry="2.1213202" />
    <ellipse
       style="opacity:0;fill:#1c1c1c;fill-opacity:1;stroke:none;stroke-width:0.99700304;stroke-linecap:round;stroke-linejoin:round;stroke-dasharray:none;stroke-opacity:1"
       id="right_step_anchor"
       cx="289.121"
       cy="140.12132"
       rx="2.1210001"
       ry="2.1213202" />
    <ellipse
       style="opacity:0;fill:#1c1c1c;fill-opacity:1;stroke:none;stroke-width:0.99700304;stroke-linecap:round;stroke-linejoin:round;stroke-dasharray:none;stroke-opacity:1"
       id="left_step_anchor"
       cx="17.121002"
       cy="140.12132"
       rx="2.1210001"
       ry="2.1213202" />
    <ellipse
       style="opacity:0;fill:#1c1c1c;fill-opacity:1;stroke:none;stroke-width:0.99700304;stroke-linecap:round;stroke-linejoin:round;stroke-dasharray:none;stroke-opacity:1"
       id="roof_edge_left_anchor"
       cx="88.454338"
       cy="147.12132"
       rx="2.1210001"
       ry="2.1213202" />
    <ellipse
       style="opacity:0;fill:#1c1c1c;fill-opacity:1;stroke:none;stroke-width:0.99700304;stroke-linecap:round;stroke-linejoin:round;stroke-dasharray:none;stroke-opacity:1"
       id="roof_edge_right_anchor"
       cx="216.45435"
       cy="147.12132"
       rx="2.1210001"
       ry="2.1213202" />
  </g>
  <path
     style="fill:none;fill-opacity:0.968627;stroke:#686868;stroke-width:0.99401197;stroke-linecap:round;stroke-dasharray:none;stroke-opacity:1;paint-order:stroke markers fill;opacity:0.5"
     d="m 102.20557,83.417979 0.5,-40.166666 1.66666,-5.833334 2.375,-4.458333 2.29167,-3.416667 3.54166,-3.708333 4.33334,-3.833333 4.25,-3.041667 4.41666,-2.291667 5.75,-2.541666 4.875,-1.416667 4.625,-0.916667 4.70834,-0.416666 4.79166,-0.125 5.875,0.08333 4.70834,0.583333 4.16666,0.791667 4.54167,1.25 4.45833,1.625 3.45834,1.916667 4.58333,2.916666 4.375,3.166667 3.75,3.833333 2.75,3.75 3.16667,5.25 2.16666,5.166667 0.58334,1.75 0.33333,4.166667 0.875,35.666666 1.70833,-0.625 1.54167,-0.20833 1.375,0.208333 1.375,1.083334 2.91668,3.166666 2.83332,3.833334 0.33333,0.625 0.0417,0.75 -0.45835,1.333333 -0.79168,2.25 -0.20832,1.041665 -0.0417,2 -0.20833,0.95833 -0.70834,0.20833 -6.125,-3.87499 -1.70831,-0.583335 -1.125,0.125 -0.83332,0.541665 -0.58334,1.16667 -0.58333,2.625 -0.45833,5.874999 -0.33334,4.41666 -0.33333,2.33334 -0.75,2.5 -1.70833,3.70834 -0.83334,1.95833 -0.41666,1.45833 -0.125,2.66667 0.125,70.04167 0.0833,2.79166 0.16667,2.33334 0.70833,1.79166 3.58333,5.83334 0.25,0.875 -0.625,13 -1.04166,11.125 -0.66667,4.83332 -0.875,4.45833 -0.83333,3.375 -0.95834,2.66667 -1,2.375 -1.25,2 -1.83333,2.08333 -1.95833,1.70835 -2.00131,1.1175 -2.09186,0.7955 -2.79896,0.73657 -3.8007,0.61872 -5.27384,0.58925 -5.45061,0.44194 -20.41771,0.7955 -5.56847,-0.11785 -3.50607,-0.17678 -6.86483,-0.70711 -5.3033,-0.73657 -5.09706,-0.88387 -2.29809,-0.61872 -3.0936,-1.14905 -1.67938,-1.00173 -1.82669,-1.8267 -1.35529,-2.18025 -1.32582,-2.47487 c 0,0 -2.26476,-4.67242 -3.04268,-7.3514 -0.20014,-0.68927 -0.48738,-1.2603 -0.56694,-2.17814 -0.0687,-0.79197 -0.41008,-2.2824 -0.55178,-3.4421 -0.22072,-1.80634 -0.44168,-3.86399 -0.64103,-5.61938 -0.27352,-2.40844 -0.42399,-4.82956 -0.58926,-7.24784 -0.2421,-3.54253 -0.58926,-10.63607 -0.58926,-10.63607 l 0.0295,-3.35876 0.4714,-2.59272 1.23744,-2.00346 1.76777,-2.82843 0.64818,-1.41421 0.32409,-1.62045 0.17677,-2.47489 V 125.8032 l 0.0295,-2.41595 -0.44195,-2.71057 -1.14904,-2.68112 -1.62046,-3.65338 -0.55979,-1.82669 -0.38302,-2.41595 -0.38301,-4.56673 -0.20624,-3.00521 -0.2357,-2.44541 -0.35356,-2.209699 -0.53033,-1.35529 -0.913345,-0.972272 -1.11959,-0.383016 -0.85442,0.265165 -1.561528,0.707103 -1.502601,1.00174 -3.59446,2.35702 -0.883883,0.26516 -0.383017,-0.29462 -0.235702,-1.20798 0.02946,-1.56152 -0.176777,-1.532068 -0.883883,-2.032932 -0.471405,-1.620453 0.707107,-1.443677 1.561527,-1.826692 1.826693,-2.386486 2.681113,-2.828427 1.119586,-0.648181 1.14905,-0.117851 1.82669,0.412479 1.708855,0.648181 0.79549,0.766033 0.41248,0.05893 z"
     id="path1"
     sodipodi:nodetypes="cccccccccccccccccccccccccccccccccccccccccccccccccccccccccccccccccccccccccccccccccccccccccccssssscccccccccccccccccccccccccccccccccccccccccccc"
     inkscape:label="central_shell" />
  <rect
     style="fill:none;fill-opacity:0.968627;stroke:#686868;stroke-width:0.79760242;stroke-linecap:round;stroke-linejoin:round;stroke-dasharray:none;stroke-opacity:1;paint-order:markers fill stroke;opacity:0.5"
     id="rect14"
     width="10.847755"
     height="22.030197"
     x="110.03498"
     y="48.333435"
     ry="2.6655149"
     rx="0"
     inkscape:label="inside_panel_left" />
  <path
     style="fill:none;fill-opacity:0.968627;stroke:#686868;stroke-width:0.79760242;stroke-linecap:round;stroke-linejoin:round;stroke-dasharray:none;stroke-opacity:1;paint-order:markers fill stroke;opacity:0.5"
     id="path13"
     sodipodi:type="arc"
     sodipodi:cx="116.05122"
     sodipodi:cy="78.854622"
     sodipodi:rx="5.676693"
     sodipodi:ry="5.1721034"
     sodipodi:start="5.6007043"
     sodipodi:end="5.5406624"
     sodipodi:open="true"
     sodipodi:arc-type="arc"
     d="m 120.4564,75.592472 a 5.676693,5.1721034 0 0 1 -0.75905,7.226339 5.676693,5.1721034 0 0 1 -7.94184,-0.583035 5.676693,5.1721034 0 0 1 0.52063,-7.243841 5.676693,5.1721034 0 0 1 7.95747,0.365575"
     inkscape:label="front_wheelhouse_left" />
  <rect
     style="fill:none;fill-opacity:0.968627;stroke:#686868;stroke-width:0.79760242;stroke-linecap:round;stroke-linejoin:round;stroke-dasharray:none;stroke-opacity:1;paint-order:markers fill stroke;opacity:0.5"
     id="rect10"
     width="14.451893"
     height="36.270134"
     x="124.28915"
     y="48.140457"
     ry="2.5887446"
     rx="0"
     inkscape:label="front_side_member_left" />
  <rect
     style="fill:none;fill-opacity:0.968627;stroke:#686868;stroke-width:0.79760242;stroke-linecap:round;stroke-linejoin:round;stroke-dasharray:none;stroke-opacity:1;paint-order:markers fill stroke;opacity:0.5"
     id="rect12"
     width="14.451893"
     height="36.270134"
     x="160.28915"
     y="48.140457"
     ry="2.5887446"
     rx="0"
     inkscape:label="front_side_member_right" />
  <rect
     style="fill:none;fill-opacity:0.968627;stroke:#686868;stroke-width:0.79760242;stroke-linecap:round;stroke-linejoin:round;stroke-dasharray:none;stroke-opacity:1;paint-order:markers fill stroke;opacity:0.5"
     id="rect7"
     width="78.02549"
     height="7.4433103"
     x="111.49328"
     y="243.59198"
     ry="2.2713108"
     inkscape:label="rear_panel" />
  <rect
     style="fill:none;fill-opacity:0.968627;stroke:#686868;stroke-width:0.79760242;stroke-linecap:round;stroke-linejoin:round;stroke-dasharray:none;stroke-opacity:1;paint-order:markers fill stroke;opacity:0.5"
     id="rect8"
     width="28.266712"
     height="23.163517"
     x="134.79967"
     y="215.05952"
     ry="5.3710947"
     inkscape:label="trunk_floor" />
  <rect
     style="fill:none;fill-opacity:0.968627;stroke:#686868;stroke-width:0.79760242;stroke-linecap:round;stroke-linejoin:round;stroke-dasharray:none;stroke-opacity:1;paint-order:markers fill stroke;opacity:0.5"
     id="rect4"
     width="81.514343"
     height="5.0291824"
     x="109.22146"
     y="197.52388"
     ry="1.5346447" />
  <path
     style="fill:none;fill-opacity:0.968627;stroke:#686868;stroke-width:0.79760242;stroke-linecap:round;stroke-linejoin:round;stroke-dasharray:none;stroke-opacity:1;paint-order:markers fill stroke;opacity:0.5"
     id="path11"
     sodipodi:type="arc"
     sodipodi:cx="184.05122"
     sodipodi:cy="78.854622"
     sodipodi:rx="5.676693"
     sodipodi:ry="5.1721034"
     sodipodi:start="5.6007043"
     sodipodi:end="5.5406624"
     sodipodi:open="true"
     sodipodi:arc-type="arc"
     d="m 188.4564,75.592472 a 5.676693,5.1721034 0 0 1 -0.75905,7.226339 5.676693,5.1721034 0 0 1 -7.94184,-0.583035 5.676693,5.1721034 0 0 1 0.52063,-7.243841 5.676693,5.1721034 0 0 1 7.95747,0.365575"
     inkscape:label="front_wheelhouse_right" />
  <rect
     style="fill:none;fill-opacity:0.968627;stroke:#686868;stroke-width:0.79760242;stroke-linecap:round;stroke-linejoin:round;stroke-dasharray:none;stroke-opacity:1;paint-order:markers fill stroke;opacity:0.5"
     id="rect11"
     width="10.847755"
     height="22.030197"
     x="178.43279"
     y="48.333435"
     ry="2.6655149"
     rx="0"
     inkscape:label="inside_panel_right" />
  <path
     style="fill:none;fill-opacity:0.968627;stroke:#686868;stroke-width:0.79760242;stroke-linecap:round;stroke-linejoin:round;stroke-dasharray:none;stroke-opacity:1;paint-order:markers fill stroke;opacity:0.5"
     id="path14"
     sodipodi:type="arc"
     sodipodi:cx="112.05122"
     sodipodi:cy="220.85461"
     sodipodi:rx="5.676693"
     sodipodi:ry="5.1721034"
     sodipodi:start="5.6007043"
     sodipodi:end="5.5406624"
     sodipodi:open="true"
     sodipodi:arc-type="arc"
     d="m 116.4564,217.59246 a 5.676693,5.1721034 0 0 1 -0.75905,7.22634 5.676693,5.1721034 0 0 1 -7.94184,-0.58303 5.676693,5.1721034 0 0 1 0.52063,-7.24384 5.676693,5.1721034 0 0 1 7.95747,0.36557"
     inkscape:label="front_wheelhouse_left" />
  <rect
     style="fill:none;fill-opacity:0.968627;stroke:#686868;stroke-width:0.79760242;stroke-linecap:round;stroke-linejoin:round;stroke-dasharray:none;stroke-opacity:1;paint-order:markers fill stroke;opacity:0.5"
     id="rect15"
     width="10.847755"
     height="22.030197"
     x="120.43278"
     y="216.33344"
     ry="2.6655149"
     rx="0"
     inkscape:label="rear_side_member_right" />
  <path
     style="fill:none;fill-opacity:0.968627;stroke:#686868;stroke-width:0.79760242;stroke-linecap:round;stroke-linejoin:round;stroke-dasharray:none;stroke-opacity:1;paint-order:markers fill stroke;opacity:0.5"
     id="path15"
     sodipodi:type="arc"
     sodipodi:cx="186.05122"
     sodipodi:cy="220.85461"
     sodipodi:rx="5.676693"
     sodipodi:ry="5.1721034"
     sodipodi:start="5.6007043"
     sodipodi:end="5.5406624"
     sodipodi:open="true"
     sodipodi:arc-type="arc"
     d="m 190.4564,217.59246 a 5.676693,5.1721034 0 0 1 -0.75905,7.22634 5.676693,5.1721034 0 0 1 -7.94184,-0.58303 5.676693,5.1721034 0 0 1 0.52063,-7.24384 5.676693,5.1721034 0 0 1 7.95747,0.36557"
     inkscape:label="rear_wheelhouse_right" />
  <rect
     style="fill:none;fill-opacity:0.968627;stroke:#686868;stroke-width:0.79760242;stroke-linecap:round;stroke-linejoin:round;stroke-dasharray:none;stroke-opacity:1;paint-order:markers fill stroke;opacity:0.5"
     id="rect16"
     width="10.847755"
     height="22.030197"
     x="166.43279"
     y="216.33344"
     ry="2.6655149"
     rx="0"
     inkscape:label="rear_side_member_right" />
  <rect
     style="fill:none;fill-opacity:0.968627;stroke:#686868;stroke-width:0.79760242;stroke-linecap:round;stroke-linejoin:round;stroke-dasharray:none;stroke-opacity:1;paint-order:markers fill stroke;opacity:0.5"
     id="rect2"
     width="78.934258"
     height="9.2709579"
     x="110.0115"
     y="183.8139"
     ry="2.8290133"
     inkscape:label="package_tray" />
  <rect
     style="fill:none;fill-opacity:0.968627;stroke:#686868;stroke-width:0.79760242;stroke-linecap:round;stroke-linejoin:round;stroke-dasharray:none;stroke-opacity:1;paint-order:markers fill stroke;opacity:0.5"
     id="rect3"
     width="69.850098"
     height="68.350098"
     x="115.61386"
     y="111.49292"
     ry="11.659722"
     inkscape:label="floor_panel" />
  <rect
     style="fill:none;fill-opacity:0.968627;stroke:#686868;stroke-width:0.79760242;stroke-linecap:round;stroke-linejoin:round;stroke-dasharray:none;stroke-opacity:1;paint-order:markers fill stroke;opacity:0.5"
     id="rect5"
     width="81.363945"
     height="6.3672986"
     x="109.29667"
     y="101.09906"
     ry="1.9429681"
     inkscape:label="dash_panel" />
  <rect
     style="fill:none;fill-opacity:0.968627;stroke:#686868;stroke-width:0.79760242;stroke-linecap:round;stroke-linejoin:round;stroke-dasharray:none;stroke-opacity:1;paint-order:markers fill stroke;opacity:0.5"
     id="rect6"
     width="81.363945"
     height="6.3672986"
     x="109.29667"
     y="91.099068"
     ry="1.9429681"
     inkscape:label="cross_member" />
  <rect
     style="fill:none;fill-opacity:0.968627;stroke:#686868;stroke-width:0.79760242;stroke-linecap:round;stroke-linejoin:round;stroke-dasharray:none;stroke-opacity:1;paint-order:markers fill stroke;opacity:0.5"
     id="rect1"
     width="76.518349"
     height="11.188382"
     x="111.86636"
     y="29.682346"
     ry="3.4141116"
     inkscape:label="front_panel" />
  <ellipse
     style="fill:none;stroke:none;stroke-width:3.76867133;stroke-dasharray:none;opacity:0.5"
     id="path2"
     cx="150.12553"
     cy="35.276539"
     rx="7"
     ry="7"
     inkscape:label="front_panel-center" />
  <ellipse
     style="fill:none;stroke:none;stroke-width:3.76867133;stroke-dasharray:none;opacity:0.5"
     id="path2-8"
     cx="115.45885"
     cy="59.348534"
     rx="7"
     ry="7"
     inkscape:label="inside_panel_left-center" />
  <ellipse
     style="fill:none;stroke:none;stroke-width:3.76867133;stroke-dasharray:none;opacity:0.5"
     id="path2-8-5"
     cx="131.51511"
     cy="66.275528"
     rx="7"
     ry="7"
     inkscape:label="front_side_member_left-center" />
  <ellipse
     style="fill:none;stroke:none;stroke-width:3.76867133;stroke-dasharray:none;opacity:0.5"
     id="path2-8-1"
     cx="116.05142"
     cy="78.854591"
     rx="7"
     ry="7"
     inkscape:label="front_wheelhouse_left-center" />
  <ellipse
     style="fill:none;stroke:none;stroke-width:3.76867133;stroke-dasharray:none;opacity:0.5"
     id="path2-7"
     cx="167.51511"
     cy="66.275528"
     rx="7"
     ry="7"
     inkscape:label="front_side_member_right-center" />
  <ellipse
     style="fill:none;stroke:none;stroke-width:3.76867133;stroke-dasharray:none;opacity:0.5"
     id="path2-2"
     cx="183.85666"
     cy="59.348534"
     rx="7"
     ry="7"
     inkscape:label="inside_panel_right-center" />
  <ellipse
     style="fill:none;stroke:none;stroke-width:3.76867133;stroke-dasharray:none;opacity:0.5"
     id="path2-1"
     cx="184.05142"
     cy="78.854591"
     rx="7"
     ry="7"
     inkscape:label="front_wheelhouse_right-center" />
  <ellipse
     style="fill:none;stroke:none;stroke-width:3.76867133;stroke-dasharray:none;opacity:0.5"
     id="path2-76"
     cx="149.97864"
     cy="94.282715"
     rx="7"
     ry="7"
     inkscape:label="cross_member-center" />
  <ellipse
     style="fill:none;stroke:none;stroke-width:3.76867133;stroke-dasharray:none;opacity:0.5"
     id="path2-27"
     cx="149.97864"
     cy="104.28271"
     rx="7"
     ry="7"
     inkscape:label="dash_panel-center" />
  <ellipse
     style="fill:none;stroke:none;stroke-width:3.76867133;stroke-dasharray:none;opacity:0.5"
     id="path2-3"
     cx="150.53891"
     cy="145.66797"
     rx="7"
     ry="7"
     inkscape:label="floor_panel-center" />
  <ellipse
     style="fill:none;stroke:none;stroke-width:3.76867133;stroke-dasharray:none;opacity:0.5"
     id="path2-34"
     cx="149.47862"
     cy="188.44939"
     rx="7"
     ry="7"
     inkscape:label="package_tray-center" />
  <ellipse
     style="fill:none;stroke:none;stroke-width:3.76867133;stroke-dasharray:none;opacity:0.5"
     id="path2-87"
     cx="149.97862"
     cy="200.03847"
     rx="7"
     ry="7"
     inkscape:label="rect4-center" />
  <ellipse
     style="fill:none;stroke:none;stroke-width:3.76867133;stroke-dasharray:none;opacity:0.5"
     id="path2-79"
     cx="148.93303"
     cy="226.64128"
     rx="7"
     ry="7"
     inkscape:label="trunk_floor-center" />
  <ellipse
     style="fill:none;stroke:none;stroke-width:3.76867133;stroke-dasharray:none;opacity:0.5"
     id="path2-86"
     cx="171.85666"
     cy="227.34854"
     rx="7"
     ry="7"
     inkscape:label="rear_side_member_right-center" />
  <ellipse
     style="fill:none;stroke:none;stroke-width:3.76867133;stroke-dasharray:none;opacity:0.5"
     id="path2-860"
     cx="186.05142"
     cy="220.85458"
     rx="7"
     ry="7"
     inkscape:label="rear_wheelhouse_right-center" />
  <ellipse
     style="fill:none;stroke:none;stroke-width:3.76867133;stroke-dasharray:none;opacity:0.5"
     id="path2-6"
     cx="125.85666"
     cy="227.34854"
     rx="7"
     ry="7"
     inkscape:label="rear_side_member_right-center" />
  <ellipse
     style="fill:none;stroke:none;stroke-width:3.76867133;stroke-dasharray:none;opacity:0.5"
     id="path2-0"
     cx="112.05142"
     cy="220.85458"
     rx="7"
     ry="7"
     inkscape:label="front_wheelhouse_left-center" />
  <ellipse
     style="fill:none;stroke:none;stroke-width:3.76867133;stroke-dasharray:none;opacity:0.5"
     id="path2-38"
     cx="150.50603"
     cy="247.31363"
     rx="0.82495791"
     ry="0.76603234"
     inkscape:label="rear_panel-center" />
  <ellipse
     style="fill:none;fill-opacity:1;stroke:none;stroke-width:3.76867133;stroke-dasharray:none;opacity:0.5"
     id="path2-9"
     cx="92.492142"
     cy="142.24791"
     rx="0.82495791"
     ry="0.76603234"
     inkscape:label="roof_edge_left-centerX" />
  <ellipse
     style="fill:none;stroke:none;stroke-width:3.76867133;stroke-dasharray:none;opacity:0.5"
     id="path2-4"
     cx="48.613369"
     cy="47.617165"
     rx="7"
     ry="7"
     inkscape:label="front_left_fender-centerX" />
  <ellipse
     style="fill:none;stroke:none;stroke-width:3.76867133;stroke-dasharray:none;opacity:0.5"
     id="path2-61"
     cx="46.686413"
     cy="116.66912"
     rx="7"
     ry="7"
     inkscape:label="front_left_door-centerX" />
  <ellipse
     style="fill:none;stroke:none;stroke-width:3.76867133;stroke-dasharray:none;opacity:0.5"
     id="path2-63"
     cx="49.063496"
     cy="164.92513"
     rx="7"
     ry="7"
     inkscape:label="rear_left_door-centerX" />
  <ellipse
     style="fill:none;stroke:none;stroke-width:3.76867133;stroke-dasharray:none;opacity:0.5"
     id="path2-29"
     cx="50.617146"
     cy="226.51874"
     rx="7"
     ry="7"
     inkscape:label="rear_left_fender-centerX" />
  <ellipse
     style="fill:none;stroke:none;stroke-width:3.76867133;stroke-dasharray:none;opacity:0.5"
     id="path2-763"
     cx="18.645851"
     cy="130.0598"
     rx="7"
     ry="7"
     inkscape:label="left_step-centerX" />
  <ellipse
     style="fill:none;fill-opacity:1;stroke:none;stroke-width:3.76867133;stroke-dasharray:none;opacity:0.5"
     id="path2-9-3"
     cx="216.46346"
     cy="142.48283"
     rx="7"
     ry="7"
     inkscape:label="roof_edge_right-centerX" />
  <ellipse
     style="fill:none;fill-opacity:1;stroke:none;stroke-width:3.76867133;stroke-dasharray:none;opacity:0.5"
     id="path2-4-3"
     cx="259.06384"
     cy="46.622833"
     rx="7"
     ry="7"
     inkscape:label="front_right_fender-centerX" />
  <ellipse
     style="fill:none;fill-opacity:1;stroke:none;stroke-width:3.76867133;stroke-dasharray:none;opacity:0.5"
     id="path2-61-5"
     cx="263.22397"
     cy="113.83579"
     rx="7"
     ry="7"
     inkscape:label="front_right_door-centerX" />
  <ellipse
     style="fill:none;fill-opacity:1;stroke:none;stroke-width:3.76867133;stroke-dasharray:none;opacity:0.5"
     id="path2-63-9"
     cx="256.70145"
     cy="164.66005"
     rx="7"
     ry="7"
     inkscape:label="rear_right_door-centerX" />
  <ellipse
     style="fill:none;fill-opacity:1;stroke:none;stroke-width:3.76867133;stroke-dasharray:none;opacity:0.5"
     id="path2-29-9"
     cx="256.75513"
     cy="226.58699"
     rx="7"
     ry="7"
     inkscape:label="rear_right_fender-centerX" />
  <ellipse
     style="fill:none;fill-opacity:1;stroke:none;stroke-width:3.76867133;stroke-dasharray:none;opacity:0.5"
     id="path2-763-8"
     cx="289.87485"
     cy="130.54939"
     rx="7"
     ry="7"
     inkscape:label="right_step-centerX" />
  <g
     id="g27"
     transform="matrix(0.27981525,0,0,0.27906321,184.36397,-94.677728)"
     style="opacity:0.2">
    <path
       id="path8"
       d="m 591.41,814.67 c 0,26.859 -21.686,48.633 -48.438,48.633 -26.751,0 -48.438,-21.774 -48.438,-48.633 0,-26.859 21.686,-48.633 48.438,-48.633 26.751,0 48.438,21.774 48.438,48.633 z"
       transform="matrix(1.3213,0,0,1.316,-342.72,-538.78)"
       fill="#1a1a1a" />
    <path
       id="path9"
       d="m 408,536 c 0,44.183 -35.817,80 -80,80 -44.183,0 -80,-35.817 -80,-80 0,-44.183 35.817,-80 80,-80 44.183,0 80,35.817 80,80 z"
       transform="matrix(0.77907,0,0,0.77907,119.16,115.72)"
       fill="url(#radialGradient4342)"
       style="fill:url(#radialGradient27)" />
    <path
       id="path12"
       opacity="0.08"
       d="m 591.41,814.67 c 0,26.859 -21.686,48.633 -48.438,48.633 -26.751,0 -48.438,-21.774 -48.438,-48.633 0,-26.859 21.686,-48.633 48.438,-48.633 26.751,0 48.438,21.774 48.438,48.633 z"
       transform="matrix(1.2595,0,0,1.2822,-308.84,-512.18)"
       fill="url(#sand_bitmap)" />
    <path
       id="path16"
       d="m 591.41,814.67 c 0,27.454 -21.686,49.71 -48.438,49.71 -26.751,0 -48.438,-22.256 -48.438,-49.71 0,-27.454 21.686,-49.71 48.438,-49.71 26.751,0 48.438,22.256 48.438,49.71 z"
       transform="matrix(1.0321,0,0,0.99734,-185.39,-279.79)"
       fill="#333333" />
    <g
       id="g18"
       transform="matrix(0.75546,0,0,0.75546,377.17,406.73)">
      <path
         id="path17"
         d="m 719.38,912.53 c -4.0417,2.1261 -7.7748,4.776 -11.062,7.875 8.1121,9.9582 13.65,19.744 10.906,28.188 -2.7623,8.5014 -13.125,13.208 -25.656,16.5 0.81813,4.5587 2.2361,8.9012 4.2188,12.938 12.073,-4.7028 23.206,-7.0042 30.438,-1.75 7.1807,5.2171 8.4584,16.367 7.75,29.188 2.2146,0.2974 4.4844,0.4687 6.7812,0.4687 2.2968,0 4.5667,-0.1713 6.7812,-0.4687 -0.70839,-12.82 0.60059,-23.97 7.7812,-29.188 7.2318,-5.2542 18.333,-2.9528 30.406,1.75 1.9826,-4.0364 3.4006,-8.3788 4.2188,-12.938 -12.531,-3.2917 -22.894,-7.9986 -25.656,-16.5 -2.7435,-8.4435 2.7941,-18.229 10.906,-28.188 -3.2864,-3.0977 -6.9915,-5.7493 -11.031,-7.875 -6.95,10.75 -14.56,18.97 -23.41,18.97 -8.853,0 -16.427,-8.2211 -23.375,-18.969 z"
         transform="matrix(1.3237,0,0,1.3237,-986.05,-1099.2)"
         fill="url(#linearGradient4360)"
         style="fill:url(#linearGradient27)" />
      <path
         id="path18"
         d="m 715.97,914.5 c -1.622,1.0236 -3.1998,2.1469 -4.6875,3.3438 12.975,16.465 24.263,31.448 22.906,35.625 -1.3649,4.2007 -19.496,9.7083 -39.812,15.438 0.49746,1.8919 1.1025,3.7344 1.8125,5.5312 19.796,-7.3036 37.709,-13.502 41.281,-10.906 3.5547,2.5826 3.2262,21.353 2.4062,42.313 0.95463,0.054 1.9068,0.094 2.875,0.094 0.96823,0 1.9204,-0.04 2.875,-0.094 -0.81995,-20.96 -1.1484,-39.73 2.4062,-42.313 3.5721,-2.5953 21.485,3.6027 41.281,10.906 0.71001,-1.7968 1.315,-3.6394 1.8125,-5.5312 -20.317,-5.7292 -38.448,-11.237 -39.812,-15.438 -1.357,-4.1766 9.9317,-19.16 22.906,-35.625 -1.4916,-1.2 -3.061,-2.3179 -4.6875,-3.3438 -11.64,17.412 -22.393,32.75 -26.781,32.75 -4.3892,0 -15.139,-15.334 -26.781,-32.75 z"
         transform="matrix(1.3237,0,0,1.3237,-986.05,-1099.2)"
         fill="url(#linearGradient4378)"
         style="fill:url(#linearGradient28)" />
    </g>
    <g
       id="g26"
       transform="translate(279.06,-702.54)">
      <path
         id="path19"
         d="m 543.41,814.71 c 0,4.942 -3.8502,8.9484 -8.5997,8.9484 -4.7495,0 -8.5997,-4.0063 -8.5997,-8.9484 0,-4.9421 3.8502,-8.9484 8.5997,-8.9484 4.7495,0 8.5997,4.0063 8.5997,8.9484 z"
         transform="matrix(2.099,0,0,2.1276,-1026.6,-498.1)"
         fill="url(#linearGradient4487)"
         style="fill:url(#linearGradient29)" />
      <path
         id="path20"
         d="m 543.41,814.71 c 0,4.942 -3.8502,8.9484 -8.5997,8.9484 -4.7495,0 -8.5997,-4.0063 -8.5997,-8.9484 0,-4.9421 3.8502,-8.9484 8.5997,-8.9484 4.7495,0 8.5997,4.0063 8.5997,8.9484 z"
         transform="matrix(1.2895,0,0,1.307,-593.68,170.4)"
         stroke="#000000"
         fill="url(#linearGradient4487)"
         style="fill:url(#linearGradient30)" />
      <g
         id="g25"
         transform="matrix(1.2895,0,0,1.307,-593.46,171.46)"
         fill="url(#linearGradient4501)"
         style="fill:url(#linearGradient36)">
        <path
           id="path21"
           d="m 533.76,811.51 c 0,0.86647 -0.7024,1.5689 -1.5689,1.5689 -0.86646,0 -1.5689,-0.7024 -1.5689,-1.5689 0,-0.86646 0.70241,-1.5689 1.5689,-1.5689 0.86647,0 1.5689,0.70241 1.5689,1.5689 z"
           transform="matrix(0.90202,0,0,0.88506,51.32,91.27)"
           style="fill:url(#linearGradient31)" />
        <path
           id="path22"
           d="m 533.76,811.51 c 0,0.86647 -0.7024,1.5689 -1.5689,1.5689 -0.86646,0 -1.5689,-0.7024 -1.5689,-1.5689 0,-0.86646 0.70241,-1.5689 1.5689,-1.5689 0.86647,0 1.5689,0.70241 1.5689,1.5689 z"
           transform="matrix(0.90202,0,0,0.88506,57.979,91.086)"
           style="fill:url(#linearGradient32)" />
        <path
           id="path23"
           d="m 533.76,811.51 c 0,0.86647 -0.7024,1.5689 -1.5689,1.5689 -0.86646,0 -1.5689,-0.7024 -1.5689,-1.5689 0,-0.86646 0.70241,-1.5689 1.5689,-1.5689 0.86647,0 1.5689,0.70241 1.5689,1.5689 z"
           transform="matrix(0.90202,0,0,0.88506,59.777,97.595)"
           style="fill:url(#linearGradient33)" />
        <path
           id="path24"
           d="m 533.76,811.51 c 0,0.86647 -0.7024,1.5689 -1.5689,1.5689 -0.86646,0 -1.5689,-0.7024 -1.5689,-1.5689 0,-0.86646 0.70241,-1.5689 1.5689,-1.5689 0.86647,0 1.5689,0.70241 1.5689,1.5689 z"
           transform="matrix(0.90202,0,0,0.88506,49.473,97.93)"
           style="fill:url(#linearGradient34)" />
        <path
           id="path25"
           d="m 533.76,811.51 c 0,0.86647 -0.7024,1.5689 -1.5689,1.5689 -0.86646,0 -1.5689,-0.7024 -1.5689,-1.5689 0,-0.86646 0.70241,-1.5689 1.5689,-1.5689 0.86647,0 1.5689,0.70241 1.5689,1.5689 z"
           transform="matrix(0.90202,0,0,0.88506,54.66,101.61)"
           style="fill:url(#linearGradient35)" />
      </g>
    </g>
    <path
       id="path26"
       d="m 591.41,814.67 c 0,27.454 -21.686,49.71 -48.438,49.71 -26.751,0 -48.438,-22.256 -48.438,-49.71 0,-27.454 21.686,-49.71 48.438,-49.71 26.751,0 48.438,22.256 48.438,49.71 z"
       transform="matrix(1.0321,0,0,0.99734,-185.39,-279.79)"
       stroke="url(#linearGradient4342)"
       stroke-width="3.7108"
       fill="none"
       style="stroke:url(#linearGradient37)" />
  </g>
  <g
     id="g51"
     transform="matrix(0.27981525,0,0,0.27906321,-85.46936,-94.177727)"
     style="opacity:0.2">
    <path
       id="path37"
       d="m 591.41,814.67 c 0,26.859 -21.686,48.633 -48.438,48.633 -26.751,0 -48.438,-21.774 -48.438,-48.633 0,-26.859 21.686,-48.633 48.438,-48.633 26.751,0 48.438,21.774 48.438,48.633 z"
       transform="matrix(1.3213,0,0,1.316,-342.72,-538.78)"
       fill="#1a1a1a" />
    <path
       id="path38"
       d="m 408,536 c 0,44.183 -35.817,80 -80,80 -44.183,0 -80,-35.817 -80,-80 0,-44.183 35.817,-80 80,-80 44.183,0 80,35.817 80,80 z"
       transform="matrix(0.77907,0,0,0.77907,119.16,115.72)"
       fill="url(#radialGradient4342)"
       style="fill:url(#radialGradient51)" />
    <path
       id="path39"
       opacity="0.08"
       d="m 591.41,814.67 c 0,26.859 -21.686,48.633 -48.438,48.633 -26.751,0 -48.438,-21.774 -48.438,-48.633 0,-26.859 21.686,-48.633 48.438,-48.633 26.751,0 48.438,21.774 48.438,48.633 z"
       transform="matrix(1.2595,0,0,1.2822,-308.84,-512.18)"
       fill="url(#sand_bitmap)" />
    <path
       id="path40"
       d="m 591.41,814.67 c 0,27.454 -21.686,49.71 -48.438,49.71 -26.751,0 -48.438,-22.256 -48.438,-49.71 0,-27.454 21.686,-49.71 48.438,-49.71 26.751,0 48.438,22.256 48.438,49.71 z"
       transform="matrix(1.0321,0,0,0.99734,-185.39,-279.79)"
       fill="#333333" />
    <g
       id="g42"
       transform="matrix(0.75546,0,0,0.75546,377.17,406.73)">
      <path
         id="path41"
         d="m 719.38,912.53 c -4.0417,2.1261 -7.7748,4.776 -11.062,7.875 8.1121,9.9582 13.65,19.744 10.906,28.188 -2.7623,8.5014 -13.125,13.208 -25.656,16.5 0.81813,4.5587 2.2361,8.9012 4.2188,12.938 12.073,-4.7028 23.206,-7.0042 30.438,-1.75 7.1807,5.2171 8.4584,16.367 7.75,29.188 2.2146,0.2974 4.4844,0.4687 6.7812,0.4687 2.2968,0 4.5667,-0.1713 6.7812,-0.4687 -0.70839,-12.82 0.60059,-23.97 7.7812,-29.188 7.2318,-5.2542 18.333,-2.9528 30.406,1.75 1.9826,-4.0364 3.4006,-8.3788 4.2188,-12.938 -12.531,-3.2917 -22.894,-7.9986 -25.656,-16.5 -2.7435,-8.4435 2.7941,-18.229 10.906,-28.188 -3.2864,-3.0977 -6.9915,-5.7493 -11.031,-7.875 -6.95,10.75 -14.56,18.97 -23.41,18.97 -8.853,0 -16.427,-8.2211 -23.375,-18.969 z"
         transform="matrix(1.3237,0,0,1.3237,-986.05,-1099.2)"
         fill="url(#linearGradient4360)"
         style="fill:url(#linearGradient51)" />
      <path
         id="path42"
         d="m 715.97,914.5 c -1.622,1.0236 -3.1998,2.1469 -4.6875,3.3438 12.975,16.465 24.263,31.448 22.906,35.625 -1.3649,4.2007 -19.496,9.7083 -39.812,15.438 0.49746,1.8919 1.1025,3.7344 1.8125,5.5312 19.796,-7.3036 37.709,-13.502 41.281,-10.906 3.5547,2.5826 3.2262,21.353 2.4062,42.313 0.95463,0.054 1.9068,0.094 2.875,0.094 0.96823,0 1.9204,-0.04 2.875,-0.094 -0.81995,-20.96 -1.1484,-39.73 2.4062,-42.313 3.5721,-2.5953 21.485,3.6027 41.281,10.906 0.71001,-1.7968 1.315,-3.6394 1.8125,-5.5312 -20.317,-5.7292 -38.448,-11.237 -39.812,-15.438 -1.357,-4.1766 9.9317,-19.16 22.906,-35.625 -1.4916,-1.2 -3.061,-2.3179 -4.6875,-3.3438 -11.64,17.412 -22.393,32.75 -26.781,32.75 -4.3892,0 -15.139,-15.334 -26.781,-32.75 z"
         transform="matrix(1.3237,0,0,1.3237,-986.05,-1099.2)"
         fill="url(#linearGradient4378)"
         style="fill:url(#linearGradient52)" />
    </g>
    <g
       id="g50"
       transform="translate(279.06,-702.54)">
      <path
         id="path43"
         d="m 543.41,814.71 c 0,4.942 -3.8502,8.9484 -8.5997,8.9484 -4.7495,0 -8.5997,-4.0063 -8.5997,-8.9484 0,-4.9421 3.8502,-8.9484 8.5997,-8.9484 4.7495,0 8.5997,4.0063 8.5997,8.9484 z"
         transform="matrix(2.099,0,0,2.1276,-1026.6,-498.1)"
         fill="url(#linearGradient4487)"
         style="fill:url(#linearGradient53)" />
      <path
         id="path44"
         d="m 543.41,814.71 c 0,4.942 -3.8502,8.9484 -8.5997,8.9484 -4.7495,0 -8.5997,-4.0063 -8.5997,-8.9484 0,-4.9421 3.8502,-8.9484 8.5997,-8.9484 4.7495,0 8.5997,4.0063 8.5997,8.9484 z"
         transform="matrix(1.2895,0,0,1.307,-593.68,170.4)"
         stroke="#000000"
         fill="url(#linearGradient4487)"
         style="fill:url(#linearGradient54)" />
      <g
         id="g49"
         transform="matrix(1.2895,0,0,1.307,-593.46,171.46)"
         fill="url(#linearGradient4501)"
         style="fill:url(#linearGradient60)">
        <path
           id="path45"
           d="m 533.76,811.51 c 0,0.86647 -0.7024,1.5689 -1.5689,1.5689 -0.86646,0 -1.5689,-0.7024 -1.5689,-1.5689 0,-0.86646 0.70241,-1.5689 1.5689,-1.5689 0.86647,0 1.5689,0.70241 1.5689,1.5689 z"
           transform="matrix(0.90202,0,0,0.88506,51.32,91.27)"
           style="fill:url(#linearGradient55)" />
        <path
           id="path46"
           d="m 533.76,811.51 c 0,0.86647 -0.7024,1.5689 -1.5689,1.5689 -0.86646,0 -1.5689,-0.7024 -1.5689,-1.5689 0,-0.86646 0.70241,-1.5689 1.5689,-1.5689 0.86647,0 1.5689,0.70241 1.5689,1.5689 z"
           transform="matrix(0.90202,0,0,0.88506,57.979,91.086)"
           style="fill:url(#linearGradient56)" />
        <path
           id="path47"
           d="m 533.76,811.51 c 0,0.86647 -0.7024,1.5689 -1.5689,1.5689 -0.86646,0 -1.5689,-0.7024 -1.5689,-1.5689 0,-0.86646 0.70241,-1.5689 1.5689,-1.5689 0.86647,0 1.5689,0.70241 1.5689,1.5689 z"
           transform="matrix(0.90202,0,0,0.88506,59.777,97.595)"
           style="fill:url(#linearGradient57)" />
        <path
           id="path48"
           d="m 533.76,811.51 c 0,0.86647 -0.7024,1.5689 -1.5689,1.5689 -0.86646,0 -1.5689,-0.7024 -1.5689,-1.5689 0,-0.86646 0.70241,-1.5689 1.5689,-1.5689 0.86647,0 1.5689,0.70241 1.5689,1.5689 z"
           transform="matrix(0.90202,0,0,0.88506,49.473,97.93)"
           style="fill:url(#linearGradient58)" />
        <path
           id="path49"
           d="m 533.76,811.51 c 0,0.86647 -0.7024,1.5689 -1.5689,1.5689 -0.86646,0 -1.5689,-0.7024 -1.5689,-1.5689 0,-0.86646 0.70241,-1.5689 1.5689,-1.5689 0.86647,0 1.5689,0.70241 1.5689,1.5689 z"
           transform="matrix(0.90202,0,0,0.88506,54.66,101.61)"
           style="fill:url(#linearGradient59)" />
      </g>
    </g>
    <path
       id="path50"
       d="m 591.41,814.67 c 0,27.454 -21.686,49.71 -48.438,49.71 -26.751,0 -48.438,-22.256 -48.438,-49.71 0,-27.454 21.686,-49.71 48.438,-49.71 26.751,0 48.438,22.256 48.438,49.71 z"
       transform="matrix(1.0321,0,0,0.99734,-185.39,-279.79)"
       stroke="url(#linearGradient4342)"
       stroke-width="3.7108"
       fill="none"
       style="stroke:url(#linearGradient61)" />
  </g>
  <g
     id="g75"
     transform="matrix(0.27981525,0,0,0.27906321,-85.94076,58.362078)"
     style="opacity:0.2">
    <path
       id="path61"
       d="m 591.41,814.67 c 0,26.859 -21.686,48.633 -48.438,48.633 -26.751,0 -48.438,-21.774 -48.438,-48.633 0,-26.859 21.686,-48.633 48.438,-48.633 26.751,0 48.438,21.774 48.438,48.633 z"
       transform="matrix(1.3213,0,0,1.316,-342.72,-538.78)"
       fill="#1a1a1a" />
    <path
       id="path62"
       d="m 408,536 c 0,44.183 -35.817,80 -80,80 -44.183,0 -80,-35.817 -80,-80 0,-44.183 35.817,-80 80,-80 44.183,0 80,35.817 80,80 z"
       transform="matrix(0.77907,0,0,0.77907,119.16,115.72)"
       fill="url(#radialGradient4342)"
       style="fill:url(#radialGradient75)" />
    <path
       id="path63"
       opacity="0.08"
       d="m 591.41,814.67 c 0,26.859 -21.686,48.633 -48.438,48.633 -26.751,0 -48.438,-21.774 -48.438,-48.633 0,-26.859 21.686,-48.633 48.438,-48.633 26.751,0 48.438,21.774 48.438,48.633 z"
       transform="matrix(1.2595,0,0,1.2822,-308.84,-512.18)"
       fill="url(#sand_bitmap)" />
    <path
       id="path64"
       d="m 591.41,814.67 c 0,27.454 -21.686,49.71 -48.438,49.71 -26.751,0 -48.438,-22.256 -48.438,-49.71 0,-27.454 21.686,-49.71 48.438,-49.71 26.751,0 48.438,22.256 48.438,49.71 z"
       transform="matrix(1.0321,0,0,0.99734,-185.39,-279.79)"
       fill="#333333" />
    <g
       id="g66"
       transform="matrix(0.75546,0,0,0.75546,377.17,406.73)">
      <path
         id="path65"
         d="m 719.38,912.53 c -4.0417,2.1261 -7.7748,4.776 -11.062,7.875 8.1121,9.9582 13.65,19.744 10.906,28.188 -2.7623,8.5014 -13.125,13.208 -25.656,16.5 0.81813,4.5587 2.2361,8.9012 4.2188,12.938 12.073,-4.7028 23.206,-7.0042 30.438,-1.75 7.1807,5.2171 8.4584,16.367 7.75,29.188 2.2146,0.2974 4.4844,0.4687 6.7812,0.4687 2.2968,0 4.5667,-0.1713 6.7812,-0.4687 -0.70839,-12.82 0.60059,-23.97 7.7812,-29.188 7.2318,-5.2542 18.333,-2.9528 30.406,1.75 1.9826,-4.0364 3.4006,-8.3788 4.2188,-12.938 -12.531,-3.2917 -22.894,-7.9986 -25.656,-16.5 -2.7435,-8.4435 2.7941,-18.229 10.906,-28.188 -3.2864,-3.0977 -6.9915,-5.7493 -11.031,-7.875 -6.95,10.75 -14.56,18.97 -23.41,18.97 -8.853,0 -16.427,-8.2211 -23.375,-18.969 z"
         transform="matrix(1.3237,0,0,1.3237,-986.05,-1099.2)"
         fill="url(#linearGradient4360)"
         style="fill:url(#linearGradient75)" />
      <path
         id="path66"
         d="m 715.97,914.5 c -1.622,1.0236 -3.1998,2.1469 -4.6875,3.3438 12.975,16.465 24.263,31.448 22.906,35.625 -1.3649,4.2007 -19.496,9.7083 -39.812,15.438 0.49746,1.8919 1.1025,3.7344 1.8125,5.5312 19.796,-7.3036 37.709,-13.502 41.281,-10.906 3.5547,2.5826 3.2262,21.353 2.4062,42.313 0.95463,0.054 1.9068,0.094 2.875,0.094 0.96823,0 1.9204,-0.04 2.875,-0.094 -0.81995,-20.96 -1.1484,-39.73 2.4062,-42.313 3.5721,-2.5953 21.485,3.6027 41.281,10.906 0.71001,-1.7968 1.315,-3.6394 1.8125,-5.5312 -20.317,-5.7292 -38.448,-11.237 -39.812,-15.438 -1.357,-4.1766 9.9317,-19.16 22.906,-35.625 -1.4916,-1.2 -3.061,-2.3179 -4.6875,-3.3438 -11.64,17.412 -22.393,32.75 -26.781,32.75 -4.3892,0 -15.139,-15.334 -26.781,-32.75 z"
         transform="matrix(1.3237,0,0,1.3237,-986.05,-1099.2)"
         fill="url(#linearGradient4378)"
         style="fill:url(#linearGradient76)" />
    </g>
    <g
       id="g74"
       transform="translate(279.06,-702.54)">
      <path
         id="path67"
         d="m 543.41,814.71 c 0,4.942 -3.8502,8.9484 -8.5997,8.9484 -4.7495,0 -8.5997,-4.0063 -8.5997,-8.9484 0,-4.9421 3.8502,-8.9484 8.5997,-8.9484 4.7495,0 8.5997,4.0063 8.5997,8.9484 z"
         transform="matrix(2.099,0,0,2.1276,-1026.6,-498.1)"
         fill="url(#linearGradient4487)"
         style="fill:url(#linearGradient77)" />
      <path
         id="path68"
         d="m 543.41,814.71 c 0,4.942 -3.8502,8.9484 -8.5997,8.9484 -4.7495,0 -8.5997,-4.0063 -8.5997,-8.9484 0,-4.9421 3.8502,-8.9484 8.5997,-8.9484 4.7495,0 8.5997,4.0063 8.5997,8.9484 z"
         transform="matrix(1.2895,0,0,1.307,-593.68,170.4)"
         stroke="#000000"
         fill="url(#linearGradient4487)"
         style="fill:url(#linearGradient78)" />
      <g
         id="g73"
         transform="matrix(1.2895,0,0,1.307,-593.46,171.46)"
         fill="url(#linearGradient4501)"
         style="fill:url(#linearGradient84)">
        <path
           id="path69"
           d="m 533.76,811.51 c 0,0.86647 -0.7024,1.5689 -1.5689,1.5689 -0.86646,0 -1.5689,-0.7024 -1.5689,-1.5689 0,-0.86646 0.70241,-1.5689 1.5689,-1.5689 0.86647,0 1.5689,0.70241 1.5689,1.5689 z"
           transform="matrix(0.90202,0,0,0.88506,51.32,91.27)"
           style="fill:url(#linearGradient79)" />
        <path
           id="path70"
           d="m 533.76,811.51 c 0,0.86647 -0.7024,1.5689 -1.5689,1.5689 -0.86646,0 -1.5689,-0.7024 -1.5689,-1.5689 0,-0.86646 0.70241,-1.5689 1.5689,-1.5689 0.86647,0 1.5689,0.70241 1.5689,1.5689 z"
           transform="matrix(0.90202,0,0,0.88506,57.979,91.086)"
           style="fill:url(#linearGradient80)" />
        <path
           id="path71"
           d="m 533.76,811.51 c 0,0.86647 -0.7024,1.5689 -1.5689,1.5689 -0.86646,0 -1.5689,-0.7024 -1.5689,-1.5689 0,-0.86646 0.70241,-1.5689 1.5689,-1.5689 0.86647,0 1.5689,0.70241 1.5689,1.5689 z"
           transform="matrix(0.90202,0,0,0.88506,59.777,97.595)"
           style="fill:url(#linearGradient81)" />
        <path
           id="path72"
           d="m 533.76,811.51 c 0,0.86647 -0.7024,1.5689 -1.5689,1.5689 -0.86646,0 -1.5689,-0.7024 -1.5689,-1.5689 0,-0.86646 0.70241,-1.5689 1.5689,-1.5689 0.86647,0 1.5689,0.70241 1.5689,1.5689 z"
           transform="matrix(0.90202,0,0,0.88506,49.473,97.93)"
           style="fill:url(#linearGradient82)" />
        <path
           id="path73"
           d="m 533.76,811.51 c 0,0.86647 -0.7024,1.5689 -1.5689,1.5689 -0.86646,0 -1.5689,-0.7024 -1.5689,-1.5689 0,-0.86646 0.70241,-1.5689 1.5689,-1.5689 0.86647,0 1.5689,0.70241 1.5689,1.5689 z"
           transform="matrix(0.90202,0,0,0.88506,54.66,101.61)"
           style="fill:url(#linearGradient83)" />
      </g>
    </g>
    <path
       id="path74"
       d="m 591.41,814.67 c 0,27.454 -21.686,49.71 -48.438,49.71 -26.751,0 -48.438,-22.256 -48.438,-49.71 0,-27.454 21.686,-49.71 48.438,-49.71 26.751,0 48.438,22.256 48.438,49.71 z"
       transform="matrix(1.0321,0,0,0.99734,-185.39,-279.79)"
       stroke="url(#linearGradient4342)"
       stroke-width="3.7108"
       fill="none"
       style="stroke:url(#linearGradient85)" />
  </g>
  <g
     id="g106"
     transform="matrix(0.27981525,0,0,0.27906321,184.36397,58.322272)"
     style="opacity:0.2">
    <path
       id="path92"
       d="m 591.41,814.67 c 0,26.859 -21.686,48.633 -48.438,48.633 -26.751,0 -48.438,-21.774 -48.438,-48.633 0,-26.859 21.686,-48.633 48.438,-48.633 26.751,0 48.438,21.774 48.438,48.633 z"
       transform="matrix(1.3213,0,0,1.316,-342.72,-538.78)"
       fill="#1a1a1a" />
    <path
       id="path93"
       d="m 408,536 c 0,44.183 -35.817,80 -80,80 -44.183,0 -80,-35.817 -80,-80 0,-44.183 35.817,-80 80,-80 44.183,0 80,35.817 80,80 z"
       transform="matrix(0.77907,0,0,0.77907,119.16,115.72)"
       fill="url(#radialGradient4342)"
       style="fill:url(#radialGradient106)" />
    <path
       id="path94"
       opacity="0.08"
       d="m 591.41,814.67 c 0,26.859 -21.686,48.633 -48.438,48.633 -26.751,0 -48.438,-21.774 -48.438,-48.633 0,-26.859 21.686,-48.633 48.438,-48.633 26.751,0 48.438,21.774 48.438,48.633 z"
       transform="matrix(1.2595,0,0,1.2822,-308.84,-512.18)"
       fill="url(#sand_bitmap)" />
    <path
       id="path95"
       d="m 591.41,814.67 c 0,27.454 -21.686,49.71 -48.438,49.71 -26.751,0 -48.438,-22.256 -48.438,-49.71 0,-27.454 21.686,-49.71 48.438,-49.71 26.751,0 48.438,22.256 48.438,49.71 z"
       transform="matrix(1.0321,0,0,0.99734,-185.39,-279.79)"
       fill="#333333" />
    <g
       id="g97"
       transform="matrix(0.75546,0,0,0.75546,377.17,406.73)">
      <path
         id="path96"
         d="m 719.38,912.53 c -4.0417,2.1261 -7.7748,4.776 -11.062,7.875 8.1121,9.9582 13.65,19.744 10.906,28.188 -2.7623,8.5014 -13.125,13.208 -25.656,16.5 0.81813,4.5587 2.2361,8.9012 4.2188,12.938 12.073,-4.7028 23.206,-7.0042 30.438,-1.75 7.1807,5.2171 8.4584,16.367 7.75,29.188 2.2146,0.2974 4.4844,0.4687 6.7812,0.4687 2.2968,0 4.5667,-0.1713 6.7812,-0.4687 -0.70839,-12.82 0.60059,-23.97 7.7812,-29.188 7.2318,-5.2542 18.333,-2.9528 30.406,1.75 1.9826,-4.0364 3.4006,-8.3788 4.2188,-12.938 -12.531,-3.2917 -22.894,-7.9986 -25.656,-16.5 -2.7435,-8.4435 2.7941,-18.229 10.906,-28.188 -3.2864,-3.0977 -6.9915,-5.7493 -11.031,-7.875 -6.95,10.75 -14.56,18.97 -23.41,18.97 -8.853,0 -16.427,-8.2211 -23.375,-18.969 z"
         transform="matrix(1.3237,0,0,1.3237,-986.05,-1099.2)"
         fill="url(#linearGradient4360)"
         style="fill:url(#linearGradient106)" />
      <path
         id="path97"
         d="m 715.97,914.5 c -1.622,1.0236 -3.1998,2.1469 -4.6875,3.3438 12.975,16.465 24.263,31.448 22.906,35.625 -1.3649,4.2007 -19.496,9.7083 -39.812,15.438 0.49746,1.8919 1.1025,3.7344 1.8125,5.5312 19.796,-7.3036 37.709,-13.502 41.281,-10.906 3.5547,2.5826 3.2262,21.353 2.4062,42.313 0.95463,0.054 1.9068,0.094 2.875,0.094 0.96823,0 1.9204,-0.04 2.875,-0.094 -0.81995,-20.96 -1.1484,-39.73 2.4062,-42.313 3.5721,-2.5953 21.485,3.6027 41.281,10.906 0.71001,-1.7968 1.315,-3.6394 1.8125,-5.5312 -20.317,-5.7292 -38.448,-11.237 -39.812,-15.438 -1.357,-4.1766 9.9317,-19.16 22.906,-35.625 -1.4916,-1.2 -3.061,-2.3179 -4.6875,-3.3438 -11.64,17.412 -22.393,32.75 -26.781,32.75 -4.3892,0 -15.139,-15.334 -26.781,-32.75 z"
         transform="matrix(1.3237,0,0,1.3237,-986.05,-1099.2)"
         fill="url(#linearGradient4378)"
         style="fill:url(#linearGradient107)" />
    </g>
    <g
       id="g105"
       transform="translate(279.06,-702.54)">
      <path
         id="path98"
         d="m 543.41,814.71 c 0,4.942 -3.8502,8.9484 -8.5997,8.9484 -4.7495,0 -8.5997,-4.0063 -8.5997,-8.9484 0,-4.9421 3.8502,-8.9484 8.5997,-8.9484 4.7495,0 8.5997,4.0063 8.5997,8.9484 z"
         transform="matrix(2.099,0,0,2.1276,-1026.6,-498.1)"
         fill="url(#linearGradient4487)"
         style="fill:url(#linearGradient108)" />
      <path
         id="path99"
         d="m 543.41,814.71 c 0,4.942 -3.8502,8.9484 -8.5997,8.9484 -4.7495,0 -8.5997,-4.0063 -8.5997,-8.9484 0,-4.9421 3.8502,-8.9484 8.5997,-8.9484 4.7495,0 8.5997,4.0063 8.5997,8.9484 z"
         transform="matrix(1.2895,0,0,1.307,-593.68,170.4)"
         stroke="#000000"
         fill="url(#linearGradient4487)"
         style="fill:url(#linearGradient109)" />
      <g
         id="g104"
         transform="matrix(1.2895,0,0,1.307,-593.46,171.46)"
         fill="url(#linearGradient4501)"
         style="fill:url(#linearGradient115)">
        <path
           id="path100"
           d="m 533.76,811.51 c 0,0.86647 -0.7024,1.5689 -1.5689,1.5689 -0.86646,0 -1.5689,-0.7024 -1.5689,-1.5689 0,-0.86646 0.70241,-1.5689 1.5689,-1.5689 0.86647,0 1.5689,0.70241 1.5689,1.5689 z"
           transform="matrix(0.90202,0,0,0.88506,51.32,91.27)"
           style="fill:url(#linearGradient110)" />
        <path
           id="path101"
           d="m 533.76,811.51 c 0,0.86647 -0.7024,1.5689 -1.5689,1.5689 -0.86646,0 -1.5689,-0.7024 -1.5689,-1.5689 0,-0.86646 0.70241,-1.5689 1.5689,-1.5689 0.86647,0 1.5689,0.70241 1.5689,1.5689 z"
           transform="matrix(0.90202,0,0,0.88506,57.979,91.086)"
           style="fill:url(#linearGradient111)" />
        <path
           id="path102"
           d="m 533.76,811.51 c 0,0.86647 -0.7024,1.5689 -1.5689,1.5689 -0.86646,0 -1.5689,-0.7024 -1.5689,-1.5689 0,-0.86646 0.70241,-1.5689 1.5689,-1.5689 0.86647,0 1.5689,0.70241 1.5689,1.5689 z"
           transform="matrix(0.90202,0,0,0.88506,59.777,97.595)"
           style="fill:url(#linearGradient112)" />
        <path
           id="path103"
           d="m 533.76,811.51 c 0,0.86647 -0.7024,1.5689 -1.5689,1.5689 -0.86646,0 -1.5689,-0.7024 -1.5689,-1.5689 0,-0.86646 0.70241,-1.5689 1.5689,-1.5689 0.86647,0 1.5689,0.70241 1.5689,1.5689 z"
           transform="matrix(0.90202,0,0,0.88506,49.473,97.93)"
           style="fill:url(#linearGradient113)" />
        <path
           id="path104"
           d="m 533.76,811.51 c 0,0.86647 -0.7024,1.5689 -1.5689,1.5689 -0.86646,0 -1.5689,-0.7024 -1.5689,-1.5689 0,-0.86646 0.70241,-1.5689 1.5689,-1.5689 0.86647,0 1.5689,0.70241 1.5689,1.5689 z"
           transform="matrix(0.90202,0,0,0.88506,54.66,101.61)"
           style="fill:url(#linearGradient114)" />
      </g>
    </g>
    <path
       id="path105"
       d="m 591.41,814.67 c 0,27.454 -21.686,49.71 -48.438,49.71 -26.751,0 -48.438,-22.256 -48.438,-49.71 0,-27.454 21.686,-49.71 48.438,-49.71 26.751,0 48.438,22.256 48.438,49.71 z"
       transform="matrix(1.0321,0,0,0.99734,-185.39,-279.79)"
       stroke="url(#linearGradient4342)"
       stroke-width="3.7108"
       fill="none"
       style="stroke:url(#linearGradient116)" />
  </g>
</svg>
